<svg width="1565" height="1078" viewBox="0 0 1565 1078" fill="none" xmlns="http://www.w3.org/2000/svg">
<g clip-path="url(#clip0_119_380)">
<path d="M415.642 859.359C409.654 838.329 403.666 829.917 394.085 829.917C382.707 829.917 371.929 827.514 415.642 826.913C450.613 826.432 443.786 828.715 436.002 829.917C423.547 832.514 426.022 845.42 428.816 851.548L481.512 990.347L508.458 921.849L489.296 873.179C480.314 846.741 470.087 829.783 463.5 829.383C440.026 828.902 443.739 827.58 448.53 826.979C455.316 826.579 468.5 825.957 492.494 825.957C515.987 825.957 508.662 827.96 502.075 828.36C491.057 828.715 489.212 839.881 489.5 843.382C489.788 846.883 515.644 902.621 515.644 902.621L535.405 853.951C538.758 846.741 539.739 838.595 538.542 835.591C537.344 832.586 535.566 832.38 533.038 831.047C531.461 830.216 528.362 829.582 528.362 829.582L517.494 827.745L512.194 827.179L515.188 826.578C521.375 826.778 534.23 827.059 536.146 826.578C538.062 826.097 551.715 826.378 558.302 826.578C580.818 827.059 568.482 828.381 559.5 828.981C553.272 829.462 547.324 838.395 545.128 842.801L518.039 906.227L550.375 990.347C568.14 944.281 603.79 849.866 604.269 840.733C604.748 831.6 591.694 828.115 585.107 827.514L580.915 826.913H581.514H582.711H635.407L637.204 827.514L639 827.514L635.407 828.355L623.431 829.316C615.766 830.758 611.055 839.13 609.658 843.136L544.387 1013.18L510.854 927.858L476.721 1014.38L415.642 859.359Z" fill="#2A381E" stroke="#2A381E"/>
<path d="M313 905.383V913.383" stroke="#2A381E" stroke-width="0.6"/>
<path d="M297.204 911.24C301.538 911.673 310.465 917.992 311.505 939.806C312.545 961.619 312.805 930.284 312.805 911.889" stroke="#2A381E"/>
<path d="M297.204 907.641C301.538 907.208 310.465 900.889 311.505 879.075C312.545 857.262 312.805 888.597 312.805 906.991" stroke="#2A381E"/>
<path d="M1145 935.383V939.383H1067L1069.62 935.383H1145Z" fill="#2A381E"/>
<path d="M865.095 825.66C868.825 825.838 856.676 826.226 862.714 826.404C868.753 826.583 869.356 826.404 875.217 826.404C883.564 826.404 891.394 824.64 899.031 824.462C906.668 824.284 913.695 824.462 916.892 824.462C938.382 824.462 953.359 827.833 964.016 837.634C974.672 847.436 980 860.088 980 875.592C980 882.007 978.934 888.779 976.803 895.907C974.672 902.857 970.942 909.361 965.614 915.42C960.464 921.301 953.359 926.112 944.302 929.855C935.244 933.597 923.788 935.468 909.935 935.468H884.36V930.122C884.36 930.122 890.696 935.258 907.366 931.665C924.036 928.071 937.134 930.467 944.302 923.28C951.469 916.093 958.639 914.352 960.948 906.511C963.435 898.67 965.206 888.544 968.688 880.758C972.17 872.973 969.283 842.429 952.613 839.434C935.943 836.44 926.505 827.457 910.343 827.457C902.173 827.457 895.638 829.526 893.152 832.556C887.719 835.242 885.933 841.733 885.933 851V983.583C885.933 989.998 884.69 997.93 885.933 1001.14C887.354 1004.34 889.17 1006.06 893.078 1007.13C896.985 1008.2 895.739 1009.76 903.199 1010.12L911.534 1011.12C906.916 1010.76 905.85 1011.38 898.746 1011.38C891.642 1011.2 884.449 1011.12 877.167 1011.12C870.241 1011.12 870.685 1011.2 864.646 1011.38C858.608 1011.38 877.16 1007.97 873.431 1008.32L877.167 1007.13C883.206 1006.77 878.746 1005.2 881.766 1004.13C884.963 1003.06 880.7 998.955 881.766 995.747C882.831 992.539 878.789 990.783 878.789 984.368L876.407 851C876.407 844.406 879.259 839.469 878.194 836.44C877.128 833.232 873.651 829.081 870.454 828.011C867.435 826.764 871.134 827.036 865.096 826.858L865.095 825.66Z" fill="#2A381E"/>
<path d="M354.268 828.419C357.289 832.409 349.318 838.937 347.621 846.114C346.538 850.697 345.809 858.031 345.809 858.031C345.691 861.76 345.489 863.947 346.413 867.565C347.367 871.303 349.767 880.042 351.247 881.866C353.664 884.845 355.141 886.523 359.102 887.825C360.915 888.42 363.995 886.875 366 882.883C368 878.9 378 879.131 373 885.441C368 891.752 353.06 891.996 347.621 879.042C342.183 866.089 337.107 856.069 335.434 850.194C333.76 844.145 330.87 839.911 326.762 837.492C322.807 834.9 316.798 833.604 308.735 833.604H298.677C292.629 833.604 282.966 830.621 282.966 830.621H264.465V838.963C264.465 838.963 264.465 848.725 264.465 855.119V983.693C264.465 989.914 254.257 1003.89 255.17 1007C256.083 1010.11 275.546 1007.59 278.132 1008.63C280.87 1009.49 285.649 1007.97 290.821 1007.97L306.453 1005.21C316.037 1005.21 323.263 1003.74 328.131 1000.8C333.152 997.864 336.727 993.111 338.857 986.544C341.139 979.805 339.657 1000.53 340.722 989.123H345.971C345.514 993.789 337.907 981.346 337.907 989.123C337.907 992.407 340.57 988.265 340.722 994.486C341.027 1000.53 347.013 994.235 347.621 1000.8C339.863 1000.46 337.868 1005.21 328.131 1005.21C318.395 1005.04 305.075 1007.6 297.468 1007.6C294.121 1007.6 290.103 1008.19 284.779 1008.19C279.606 1008.19 275.153 1009.21 269.068 1009.38C262.983 1009.38 258.386 1009.21 252.149 1009.38C245.912 1009.38 251.131 1008.61 245.502 1008.79L247.315 1007.6C252.487 1007.25 247.528 1005.65 250.114 1004.62C252.853 1003.58 250.028 1000.8 250.94 997.691C251.82 994.692 252.117 990.247 252.149 984.356C253.607 983.914 253.001 983.76 251.545 983.76L251.571 981.154L251.545 855.119C251.545 848.725 251.545 844.922 249.732 841.347C247.919 837.771 246.711 836.58 243.689 834.196C240.668 831.813 238.855 830.621 232.209 830.025L231 829.429C236.629 829.602 242.286 828.66 248.523 828.833C254.761 828.833 261.802 828.246 267.888 828.419C273.973 828.419 279.602 828.419 284.774 828.419C290.099 828.419 294.434 828.419 297.781 828.419C304.779 828.419 312.69 828.419 321.514 828.419C330.489 828.246 347.27 828.765 354.268 828.419Z" fill="#2A381E"/>
<path d="M655.166 824.419C652.559 828.442 659.438 835.025 660.903 842.261C661.838 846.882 662.467 854.277 662.467 854.277C662.568 858.037 662.743 860.242 661.946 863.89C661.122 867.659 659.051 876.471 657.774 878.31C655.688 881.314 654.654 884.199 650.994 884.318C649 884.383 646.745 881.473 644 878.31C641.914 875.906 636 876.383 639 881.915C642 887.446 656.209 888.524 660.903 875.463C665.596 862.402 669.977 852.299 671.421 846.375C672.865 840.276 675.36 836.007 678.905 833.568C682.318 830.954 687.504 829.647 694.463 829.647H703.143C708.362 829.647 716.702 826.639 716.702 826.639H732.669V835.051C732.669 835.051 732.669 844.894 732.669 851.341V980.982C732.669 987.254 740.367 970.249 739.579 973.385C738.791 976.522 741.5 976.546 739.268 977.591C736.905 978.462 743.97 975.194 739.506 975.194L739.373 973.385C731.101 973.385 743.781 975.966 739.579 973.004C735.246 970.042 742.529 972.261 740.691 965.639C738.721 958.843 741.61 979.478 740.691 967.978H736.161C736.555 972.683 740 960.137 740 967.978C740 971.289 740.822 967.113 740.691 973.385C740.428 979.484 735.262 973.132 734.736 979.754C741.432 979.405 730.865 979.754 739.268 979.754C747.671 979.579 732.942 975.194 739.506 975.194C742.395 975.194 736.095 973.385 740.691 973.385C745.155 973.385 732.31 975.014 737.562 975.188C742.813 975.188 735.307 977.417 740.691 977.591C746.074 977.591 735.503 975.014 740.361 975.188L737.562 970.082C733.098 969.734 741.605 974.431 739.373 973.385C740.16 976.522 737.009 972.34 739.373 973.385C738.613 970.361 739.295 983.531 739.268 977.591C738.01 977.145 739.434 980.674 740.691 980.674L740.361 977.883L738.418 850.314C738.418 843.867 736.853 840.652 738.418 837.047C739.982 833.442 736.621 840.062 740.214 834.635C743.808 829.207 740.691 826.19 746.427 825.589L746.11 824.836C741.252 825.011 751.81 824.663 746.427 824.837C741.044 824.837 734.967 824.245 729.715 824.419C724.463 824.419 719.606 824.419 715.142 824.419C710.546 824.419 706.804 824.419 703.916 824.419C697.876 824.419 691.049 824.419 683.434 824.419C675.688 824.245 661.206 824.768 655.166 824.419Z" fill="#2A381E"/>
<path d="M815.982 824.419C818.566 828.442 811.749 835.025 810.298 842.261C809.372 846.882 808.748 854.277 808.748 854.277C808.648 858.037 808.475 860.242 809.265 863.89C810.081 867.659 812.133 876.471 813.399 878.31C815.465 881.314 816.368 883.383 820 883.383C822 883.383 822.87 880.672 826 878.883C829.5 876.883 834 875.946 832 881.915C830 887.883 814.949 888.524 810.298 875.463C805.648 862.402 801.308 852.299 799.877 846.375C798.446 840.276 795.974 836.007 792.462 833.568C789.079 830.954 783.941 829.647 777.046 829.647H768.445C763.274 829.647 755.011 826.639 755.011 826.639H739.19V835.051C739.19 835.051 739.19 844.894 739.19 851.341V980.982C739.19 987.254 731.563 970.249 732.344 973.385C733.124 976.522 730.441 976.546 732.652 977.591C734.994 978.462 727.993 975.194 732.416 975.194L732.548 973.385C740.744 973.385 728.181 975.966 732.344 973.004C736.637 970.042 731.179 971.004 733 964.383C734.951 957.587 730.332 979.478 731.242 967.978H735.73C735.34 972.683 730 960.137 730 967.978C730 971.289 731.112 967.113 731.242 973.385C731.503 979.484 736.621 973.132 737.142 979.754C730.507 979.405 740.978 979.754 732.652 979.754C724.326 979.579 738.92 975.194 732.416 975.194C729.554 975.194 735.796 973.385 731.242 973.385C726.819 973.385 739.546 975.014 734.343 975.188C729.139 975.188 736.576 977.417 731.242 977.591C725.909 977.591 736.382 975.014 731.569 975.188L734.343 970.082C738.766 969.734 730.337 974.431 732.548 973.385C731.768 976.522 734.89 972.34 732.548 973.385C733.301 970.361 732.625 983.531 732.652 977.591C733.899 977.145 730.929 980.595 729.684 980.595L731 978.383L731.5 850.883C731.5 844.436 732.267 841.488 730.717 837.883C729.167 834.278 734.859 835.051 730.717 832.794C726.575 830.538 730.725 826.786 725.042 826.185L725.873 824.836C730.686 825.011 720.225 824.663 725.559 824.837C730.892 824.837 736.914 824.245 742.117 824.419C747.321 824.419 752.134 824.419 756.557 824.419C761.11 824.419 764.818 824.419 767.68 824.419C773.664 824.419 780.428 824.419 787.974 824.419C795.649 824.245 809.998 824.768 815.982 824.419Z" fill="#2A381E"/>
<path d="M306.291 908.65C306.291 908.65 306.291 908.324 306.291 910.045C306.291 911.767 306.291 910.773 306.291 910.773H285.145H264C264 910.773 264 911.767 264 910.045C264 908.324 264 908.65 264 908.65H285.145H306.291ZM312.5 873.383C311.884 883.194 312.955 891.365 312.955 896.529C313.109 901.693 312.819 905.742 312.819 910.045C312.819 914.349 312.376 919.082 312.53 924.246C312.684 929.409 311.914 936.572 312.53 946.383L312.343 945.789C311.727 940.281 311.432 934.929 310.507 929.765C309.737 924.429 306.091 918.791 303.164 915.521C300.391 912.079 292.964 910.773 286.185 910.773L286.185 908.65C291.269 908.65 296.433 907.806 300.104 906.025C303.776 904.245 304.5 904.383 306 900.883C307.233 897.268 310.038 892.67 310.5 888.883C310.962 884.924 311.606 878.262 312.068 875.163L312.5 873.383Z" fill="#2A381E"/>
<path d="M346.779 992.278C348.46 999.185 356.362 1005.47 353.367 1009.31C346.43 1008.98 329.797 1009.48 320.9 1009.31H297.375H284.482H267.743C261.711 1009.48 258.325 1009.31 252.142 1009.31C248.275 1009.06 243.946 1008.17 238.366 1008.34L231.777 1008.34C242.559 1006.88 241.361 1006.31 244.955 1004.02C247.949 1001.72 247.949 1000.31 249.746 996.866C251.543 993.425 251.543 989.764 251.543 983.61V983.61L264.497 983.383C264.497 989.537 264.35 999.16 264.35 999.16V1007.19H282.689C282.689 1007.19 292.268 1004.32 298.262 1004.32H308.233C316.225 1004.32 322.181 1003.07 326.102 1000.58C330.174 998.247 333.039 994.172 334.698 988.35C336.357 982.695 342.736 973.026 346.779 960.583C350.821 948.14 368.94 944.674 372.534 952.703C374.318 956.688 365.946 957.559 358.758 952.703C355.377 950.419 352.768 954.997 350.372 957.865C348.906 959.621 346.527 968.032 345.581 971.63C344.665 975.112 344.866 977.218 344.982 980.807C344.982 980.807 345.705 987.866 346.779 992.278Z" fill="#2A381E"/>
<path d="M40.0595 828.384L70.5286 828.384L175.079 987.296V850.054C175.079 838.497 162.533 831.795 155.961 830.19C129.674 828.264 159.147 828.384 177.468 828.384C194.395 828.384 223.231 828.745 203.158 830.19C183.084 831.635 177.269 844.035 176.871 850.054V1014.38L175.079 1011.65L76.503 861.491C66.9437 845.238 51.6106 830.792 44.8397 830.19C34.8029 829.708 38.2681 828.986 40.0595 828.384Z" fill="#2A381E"/>
<path d="M175.079 987.296V850.054C175.079 838.497 162.533 831.795 155.961 830.19C129.674 828.264 159.147 828.384 177.468 828.384C194.395 828.384 223.231 828.745 203.158 830.19C183.084 831.635 177.269 844.035 176.871 850.054V1014.38L175.079 1011.65M175.079 987.296L70.5286 828.384L40.0595 828.384C38.2681 828.986 34.8029 829.708 44.8397 830.19C51.6106 830.792 66.9437 845.238 76.503 861.491L175.079 1011.65M175.079 987.296V1011.65" stroke="#2A381E"/>
<path d="M40.0595 828.384L70.5286 828.384L175.079 987.296V850.054C175.079 838.497 162.533 831.795 155.961 830.19C129.674 828.264 159.147 828.384 177.468 828.384C194.395 828.384 223.231 828.745 203.158 830.19C183.084 831.635 177.269 844.035 176.871 850.054V1014.38L175.079 1011.65L76.503 861.491C66.9437 845.238 51.6106 830.792 44.8397 830.19C34.8029 829.708 38.2681 828.986 40.0595 828.384Z" fill="#2A381E"/>
<path d="M175.079 987.296V850.054C175.079 838.497 162.533 831.795 155.961 830.19C129.674 828.264 159.147 828.384 177.468 828.384C194.395 828.384 223.231 828.745 203.158 830.19C183.084 831.635 177.269 844.035 176.871 850.054V1014.38L175.079 1011.65M175.079 987.296L70.5286 828.384L40.0595 828.384C38.2681 828.986 34.8029 829.708 44.8397 830.19C51.6106 830.792 66.9437 845.238 76.503 861.491L175.079 1011.65M175.079 987.296V1011.65" stroke="#2A381E"/>
<path d="M61.1936 989.586L59.3594 837.094L61.1936 839.792L61.2667 852.771L62.9935 989.563C63.1389 1001.08 76.4149 1007 83.0347 1008.51C109.457 1010.1 79.2652 1010.96 60.8663 1011.19C43.8673 1011.41 14.9045 1011.41 35.0451 1009.72C55.1858 1008.02 60.8694 995.591 61.1936 989.586Z" fill="#2A381E" stroke="#2A381E"/>
<path d="M62.1281 988.595C62.4524 994.599 68.136 1007.03 88.2766 1008.73C108.417 1010.42 79.4544 1010.42 62.4554 1010.2" stroke="#2A381E"/>
<path d="M263.276 849.36C262.932 843.634 257.207 831.791 237.061 830.221C216.914 828.651 245.877 828.59 262.877 828.756" stroke="#2A381E"/>
<path d="M263.276 849.36C262.932 843.634 257.207 831.791 237.061 830.221C216.914 828.651 245.877 828.59 262.877 828.756" stroke="#2A381E"/>
<path d="M261.598 988.404C251.993 1002.26 258.591 1005.75 238.051 1007.33C217.905 1008.89 246.868 1008.94 263.867 1008.78" stroke="#2A381E"/>
<path d="M67.2574 845.79C66.9325 839.839 60.315 831.535 40.1742 829.853C20.0334 828.172 48.9962 828.181 65.9952 828.395" stroke="#2A381E"/>
<path d="M176.73 849.81C176.405 843.86 170.72 831.538 150.579 829.857C130.438 828.175 159.401 828.184 176.4 828.399" stroke="#2A381E"/>
<path d="M886.419 990.562V826.383H874.374V854.936V990.562C874.374 1001.98 867.147 1008.01 860.522 1009.6C834.021 1011.5 863.734 1011.38 882.204 1011.38C899.269 1011.38 928.339 1011.02 908.102 1009.6C887.865 1008.17 886.821 996.51 886.419 990.562Z" fill="#2A381E" stroke="#2A381E"/>
<path d="M879.311 990.923C878.984 996.735 874.164 1008.78 854.023 1010.42C833.882 1012.07 862.845 1012.05 879.844 1011.84" stroke="#2A381E"/>
<path d="M741.856 992.449V827.382H729.996V855.882V992.449C729.996 1003.93 722.52 1009.79 715.997 1011.38C689.904 1013.3 719.52 1013.38 737.706 1013.38C754.508 1013.38 783.131 1013.02 763.205 1011.59C743.28 1010.15 742.251 998.43 741.856 992.449Z" fill="#2A381E" stroke="#2A381E"/>
<path d="M734.74 990.985C734.418 997.144 729.607 1009.9 709.467 1011.63C689.327 1013.36 718.29 1013.37 735.289 1013.15" stroke="#2A381E"/>
<path d="M1170.23 990.382C1167.88 984.982 1113.38 834.383 1113.38 834.383L1105.76 840.383L1104 852.983C1104 852.983 1153.82 983.782 1155.58 992.182C1157.33 1000.58 1150.89 1007.98 1144.44 1009.58C1118.65 1011.5 1147.57 1011.38 1165.54 1011.38C1182.14 1011.38 1214.54 1011.02 1194.84 1009.58C1175.15 1008.14 1172.57 995.782 1170.23 990.382Z" fill="#2A381E" stroke="#2A381E"/>
<path d="M1164.3 988.916C1163.97 994.867 1159.16 1007.19 1139.01 1008.87C1118.87 1010.56 1147.84 1010.55 1164.84 1010.33" stroke="#2A381E"/>
<path d="M1505.6 987.513C1499.36 979.035 1445.35 903.383 1445.35 903.383L1437.49 909.252L1436 915.122C1436 915.122 1484.17 981.765 1485.95 990.122C1487.73 998.479 1488.25 1005 1481.72 1006.59C1455.61 1008.5 1484.89 1008.38 1503.09 1008.38C1519.91 1008.38 1552.71 1008.02 1532.76 1006.59C1512.82 1005.16 1511.84 995.992 1505.6 987.513Z" fill="#2A381E" stroke="#2A381E"/>
<path d="M1501.13 987.342C1500.8 993.192 1495.98 1005.31 1475.84 1006.97C1455.7 1008.62 1484.67 1008.61 1501.66 1008.39" stroke="#2A381E"/>
<path d="M886.419 845.429V1011.38H874.374V982.521V845.429C874.374 833.884 867.147 827.791 860.522 826.188C834.021 824.264 863.734 824.384 882.204 824.384C899.269 824.384 928.339 824.745 908.102 826.188C887.865 827.631 886.821 839.416 886.419 845.429Z" fill="#2A381E" stroke="#2A381E"/>
<path d="M879.312 846.367C878.987 840.416 874.171 828.091 854.031 826.409C833.89 824.728 862.853 824.737 879.852 824.951" stroke="#2A381E"/>
<path d="M1412.86 843.429V1009.38H1401V980.521V843.429C1401 831.884 1393.88 825.791 1387.36 824.188C1361.27 822.264 1390.52 822.384 1408.71 822.384C1425.51 822.384 1454.13 822.745 1434.21 824.188C1414.28 825.631 1413.25 837.416 1412.86 843.429Z" fill="#2A381E" stroke="#2A381E"/>
<path d="M1412.86 988.562V824.383H1401V852.936V988.562C1401 999.983 1393.88 1006.01 1387.36 1007.6C1361.27 1009.5 1390.52 1009.38 1408.71 1009.38C1425.51 1009.38 1454.13 1009.02 1434.21 1007.6C1414.28 1006.17 1413.25 994.51 1412.86 988.562Z" fill="#2A381E" stroke="#2A381E"/>
<path d="M1406.95 989.015C1406.62 994.678 1401.8 1006.41 1381.66 1008.02C1361.51 1009.64 1390.48 1009.61 1407.48 1009.39" stroke="#2A381E"/>
<path d="M1407.4 844.613C1407.08 838.47 1402.27 825.747 1382.13 824.02C1361.99 822.292 1390.95 822.289 1407.95 822.504" stroke="#2A381E"/>
<path d="M635.048 828.383C655.583 826.892 625.759 826.52 608.443 826.52C589.701 826.52 561.098 825.773 587.989 827.761" stroke="#2A381E"/>
<path d="M545.003 843.187C544.675 837.438 538.054 829.414 517.913 827.781C497.772 826.148 526.734 826.169 543.733 826.384" stroke="#2A381E"/>
<path d="M1046.1 989.94C1049.71 982.139 1109.11 826.136 1109.11 826.136L1111.5 826.136C1111.5 826.136 1115.55 826.247 1118.09 826.736C1119.87 827.08 1120.83 827.467 1122.59 827.936C1124.35 828.405 1135.29 831.807 1130.7 833.336C1127.1 834.536 1127.1 831.536 1124.1 829.736C1121.09 827.936 1119.77 829.175 1118.09 829.736C1116.29 830.336 1115.09 833.287 1115.09 836.936C1115.09 842.937 1109.11 838.736 1109.11 838.736C1109.11 838.736 1049.7 978.539 1052.11 991.74C1054.51 1004.94 1060.51 1007.34 1067.74 1008.76C1094.16 1010.34 1063.97 1011.21 1045.57 1011.44C1028.57 1011.65 999.609 1011.66 1019.75 1009.96C1039.89 1008.27 1042.5 997.74 1046.1 989.94Z" fill="#2A381E" stroke="#2A381E"/>
<path d="M1046.83 988.839C1047.15 994.843 1052.84 1007.28 1072.98 1008.97C1093.12 1010.67 1064.15 1010.66 1047.15 1010.45" stroke="#2A381E"/>
<path d="M1498.17 841.592C1493.83 849.228 1439.35 916.188 1439.35 916.188L1439.35 916.189C1439.35 916.843 1439.35 918.152 1432.15 916.843C1426.39 915.795 1416.23 916.406 1411.86 916.843L1411.21 911.606L1419.72 911.606C1420.76 911.606 1428.23 912.26 1436.74 908.332C1445.25 904.405 1486.49 854.652 1487.8 844.178C1489.11 833.704 1483.23 826.509 1476 825.092C1449.58 823.505 1479.77 822.644 1498.17 822.412C1515.17 822.197 1544.13 822.192 1523.99 823.886C1503.85 825.58 1502.5 833.955 1498.17 841.592Z" fill="#2A381E" stroke="#2A381E"/>
<path d="M1495.43 843.047C1495.1 836.918 1490.24 826.333 1470.1 824.609C1449.96 822.885 1478.92 822.883 1495.92 823.098" stroke="#2A381E"/>
<path d="M1281.92 827.158C1292.84 827.158 1301.77 828.807 1308.71 832.104C1315.83 835.236 1322.11 838.945 1327.57 843.231C1330.88 845.703 1332.83 849.733 1335.27 848.107C1339.2 845.488 1341.16 839.596 1342.47 829.777H1343.13C1342.8 835.876 1343.86 844.137 1343.69 852.874C1343.53 861.611 1342.47 873.043 1342.47 887.385L1341.82 884.766C1340.66 877.678 1340.51 874.947 1338.54 869.055C1337.62 866.278 1335.93 863.163 1333.96 860.545C1329.79 854.978 1330.15 855.791 1325.45 850.725C1320.33 843.966 1313.76 839.274 1305.99 836.307C1298.21 833.175 1290.03 831.609 1281.43 831.609C1273.32 831.609 1265.96 833.67 1259.35 837.791C1252.9 841.747 1245.04 843.142 1240.25 850.725C1235.62 858.308 1225.29 859.89 1223.33 873.637C1223.33 887.385 1215.47 898.908 1215.47 912.261C1215.47 926.108 1221.36 937.137 1223.33 960.049C1225.95 975.76 1238.76 974.942 1243.72 982.195C1249.51 994.09 1255.41 991.472 1261.58 998.762C1268.53 1002.39 1275.97 1004.2 1283.91 1004.2C1291.35 1004.2 1299.12 1002.72 1307.23 999.751C1315.33 996.784 1321.7 992.003 1326.33 985.409C1329.97 980.629 1335.91 984.638 1337.24 979.034C1338.72 973.429 1338.7 979.887 1339.85 969.831V969.214C1339.85 984.215 1341 973.076 1341.16 982.307C1341.33 991.373 1340.83 983.244 1341.16 989.508V996.054C1340.5 988.966 1338.23 984.503 1336.58 982.689C1335.09 980.876 1331.21 990.767 1327.57 993.075C1321.45 997.361 1314.92 1001.15 1307.97 1004.45C1301.19 1007.58 1292.42 1009.15 1281.67 1009.15C1265.96 1009.15 1252.15 1005.6 1240.25 998.514C1228.5 991.426 1219.33 981.206 1212.71 967.853C1206.26 954.501 1203.04 938.428 1203.04 919.636C1203.04 901.174 1206.43 885.019 1213.21 871.172C1219.99 857.325 1229.25 846.527 1240.99 838.78C1252.9 831.032 1266.54 827.158 1281.92 827.158Z" fill="#2A381E"/>
<path d="M1308.71 1004.2C1301.77 1007.5 1292.84 1009.15 1281.92 1009.15L1281.43 1004.7C1290.03 1004.7 1298.21 1003.13 1305.98 999.998C1313.76 997.03 1320.32 992.338 1325.45 985.58C1330.15 980.513 1329.79 981.327 1333.96 975.76C1335.93 973.142 1337.89 970.523 1339.2 967.904C1341.98 962.35 1342.47 959.394 1343.78 951.539L1344.44 949.575C1344.44 963.916 1344.27 974.879 1344.44 983.616C1344.6 992.352 1343.45 999.774 1343.78 1005.87L1342.47 1006.53C1341.16 996.708 1339.2 990.817 1335.27 988.198C1332.83 986.572 1330.87 990.601 1327.57 993.074C1322.11 997.36 1315.83 1001.07 1308.71 1004.2Z" fill="#2A381E"/>
<path d="M884.227 933.865C893.836 934.22 902.277 933.806 907.793 934.34C913.31 934.695 917.962 932.651 921.343 933.007C924.902 933.362 928.284 933.806 931.487 934.339C943.41 936.294 946.989 937.044 952.15 942.375C957.489 947.529 961.404 955.615 963.895 966.633C963.895 966.633 966.711 982.963 969.329 988.854C971.948 994.746 971.689 995.271 974.566 998.403C978.731 1002.93 984.084 1006.06 987.999 1005.88C991.024 1005.71 994.999 1001.38 996.999 997.383C999.289 992.803 999.499 990.383 1003.5 989.883C1007.5 989.383 1008.44 993.883 1008 997.383C1007.56 1000.88 1004.5 1005.38 998.499 1006.88C992.499 1008.38 984.544 1008.41 981.113 1006.53C980.122 1005.99 975.215 1002.88 973.257 1001.29C970.277 998.883 968.521 996.383 966.711 992.128C964.9 987.872 963.433 984.637 961.474 978.38C960.435 975.063 958.855 973.798 957.546 967.251C956.236 960.705 953.421 959.514 952.309 952.849C951.43 947.584 948.373 948.267 945.108 944.339C941.842 940.411 936.686 939.937 930.999 938.883C925.312 937.828 922.195 935.829 914.34 935.829L885.84 935.139L884.227 933.865Z" fill="#2A381E"/>
<path d="M1341.85 880.522C1342.73 900.794 1343.11 871.36 1343.18 854.27C1343.27 835.772 1343.88 807.543 1342.46 834.078" stroke="#2A381E"/>
<path d="M1342.51 1000.83C1343.88 1019.2 1344.37 992.53 1344.43 977.044C1344.51 960.284 1345.35 934.707 1343.3 958.747" stroke="#2A381E"/>
<path d="M793.5 299C900.98 299 1000.29 334.035 1080.64 393.317C1005.41 417.282 750.238 473.75 783.126 525.5C819.162 582.203 759.026 572.311 617.5 604.5C481.092 635.525 476.758 710.523 446.529 784H309C309 516.142 525.918 299 793.5 299ZM1109.43 416.287C1212.64 505.23 1278 636.974 1278 784H779.148C743.041 733.455 644.08 681.447 783.126 644C863.5 622.354 946.211 599.334 900.5 559.5C834.887 502.323 1059.34 433.887 1109.43 416.287Z" fill="#2A381E"/>
<path d="M775 251L775 24" stroke="#2A381E" stroke-width="13" stroke-linecap="round"/>
<path d="M814.445 250.818L826.235 116.709" stroke="#2A381E" stroke-width="13" stroke-linecap="round"/>
<path d="M733.391 250.818L720.127 116.709" stroke="#2A381E" stroke-width="13" stroke-linecap="round"/>
<path d="M1089.24 319.945L1165.06 208.696" stroke="#2A381E" stroke-width="13" stroke-linecap="round"/>
<path d="M1018.52 280.338L1072.48 156.847" stroke="#2A381E" stroke-width="13" stroke-linecap="round"/>
<path d="M1252.57 466.023L1366.46 394.229" stroke="#2A381E" stroke-width="13" stroke-linecap="round"/>
<path d="M1203.51 401.504L1302.23 309.767" stroke="#2A381E" stroke-width="13" stroke-linecap="round"/>
<path d="M1326.05 698.691L1457.71 670.575" stroke="#2A381E" stroke-width="13" stroke-linecap="round"/>
<path d="M1302.25 621.209L1426.55 569.144" stroke="#2A381E" stroke-width="13" stroke-linecap="round"/>
<path d="M476.996 331.387L401.182 220.137" stroke="#2A381E" stroke-width="13" stroke-linecap="round"/>
<path d="M547.715 291.781L493.76 168.29" stroke="#2A381E" stroke-width="13" stroke-linecap="round"/>
<path d="M313.664 477.469L199.779 405.674" stroke="#2A381E" stroke-width="13" stroke-linecap="round"/>
<path d="M362.73 412.947L264.011 321.21" stroke="#2A381E" stroke-width="13" stroke-linecap="round"/>
<path d="M240.188 710.133L108.53 682.016" stroke="#2A381E" stroke-width="13" stroke-linecap="round"/>
<path d="M263.992 632.652L139.692 580.587" stroke="#2A381E" stroke-width="13" stroke-linecap="round"/>
<path d="M1054.66 299.338L1164.07 100.498" stroke="#2A381E" stroke-width="13" stroke-linecap="round"/>
<path d="M1230 430.334L1414.38 298.001" stroke="#2A381E" stroke-width="13" stroke-linecap="round"/>
<path d="M1322 659.148L1538.48 591" stroke="#2A381E" stroke-width="13" stroke-linecap="round"/>
<path d="M510.41 311.84L400.999 113" stroke="#2A381E" stroke-width="13" stroke-linecap="round"/>
<path d="M336.977 442.08L151 312" stroke="#2A381E" stroke-width="13" stroke-linecap="round"/>
<path d="M247.324 670.354L30.4802 603.384" stroke="#2A381E" stroke-width="13" stroke-linecap="round"/>
</g>
<defs>
<clipPath id="clip0_119_380">
<rect width="1565" height="1078" fill="white"/>
</clipPath>
</defs>
</svg>
