<svg width="1293" height="767" viewBox="0 0 1293 767" fill="none" xmlns="http://www.w3.org/2000/svg">
<path d="M1118.25 727.447H1140.88V587.052H1118.25V582.863H1182.28V587.052H1161.27V652.34H1160.5L1191.29 619.067L1222.08 587.052H1203.69V582.863H1245.89V587.052H1228.97L1177.18 642.086L1251.19 727.447H1264.65V731.862H1205.72V727.447H1224.08L1162.9 655.27H1161.27V727.447H1182.28V731.862H1118.25V727.447Z" fill="#2A381E"/>
<path d="M1101.79 731.859H1098.73C1097.78 730.743 1096.69 729.766 1095.47 728.929C1094.25 727.953 1092.34 727.464 1089.76 727.464C1087.72 727.464 1085.48 727.883 1083.03 728.72C1080.72 729.417 1078 730.254 1074.87 731.231C1071.88 732.208 1068.49 733.045 1064.68 733.742C1060.87 734.579 1056.66 734.998 1052.04 734.998C1043.47 734.998 1035.11 733.393 1026.96 730.185C1018.94 726.976 1011.33 721.744 1004.12 714.49C997.46 707.654 991.886 699.562 987.401 690.215C982.915 680.867 980.672 670.055 980.672 657.778C980.672 647.315 982.507 637.34 986.177 627.853C989.847 618.366 994.945 609.996 1001.47 602.741C1007.99 595.486 1015.68 589.766 1024.51 585.581C1033.35 581.256 1043 579.094 1053.47 579.094C1057.68 579.094 1061.42 579.512 1064.68 580.349C1067.94 581.186 1070.86 582.163 1073.45 583.279C1076.03 584.256 1078.41 585.163 1080.58 586C1082.76 586.837 1084.87 587.255 1086.91 587.255C1089.62 587.255 1091.53 586.837 1092.61 586C1093.84 585.023 1094.93 583.977 1095.88 582.861H1098.94V624.714H1096.69C1095.47 619.413 1093.91 614.181 1092 609.019C1090.1 603.857 1087.54 600.16 1084.15 596.254C1080.75 592.208 1076.4 588.999 1071.1 586.627C1065.93 584.116 1059.47 582.861 1051.72 582.861C1044.52 582.861 1038.33 584.046 1033.17 586.418C1028 588.65 1023.65 591.72 1020.12 595.626C1016.59 599.393 1013.64 603.02 1011.46 608.182C1009.42 613.204 1007.86 618.576 1006.77 624.295C1005.68 629.876 1004.94 635.596 1004.53 641.455C1004.26 647.175 1004.12 652.616 1004.12 657.778C1004.12 672.427 1005.28 684.564 1007.59 694.191C1009.9 703.817 1013.19 709.537 1017.27 715.117C1021.48 720.698 1026.51 724.604 1032.35 726.836C1038.2 729.069 1044.66 730.185 1051.72 730.185C1060.83 730.185 1068.17 728.859 1073.75 726.209C1079.32 723.558 1083.81 720.14 1087.2 715.955C1090.6 711.63 1093.09 708.7 1094.86 703.399C1096.62 697.958 1098.19 692.586 1099.55 687.285H1101.79V731.859Z" fill="#2A381E"/>
<path d="M570.377 727.447H581.693H593.01L592.821 587.494H586.908H580.995C578.276 587.494 575.217 587.773 571.819 588.331C568.421 588.749 564.954 590.075 561.42 592.307C558.021 594.539 554.691 598.097 551.429 602.98C548.302 607.723 545.773 612.649 543.462 621.159H541.219V582.863H665.192V621.159H662.949C660.638 612.649 657.662 607.723 654.399 602.98C651.273 598.097 647.943 594.539 644.408 592.307C641.01 590.075 637.611 588.749 634.213 588.331C630.815 587.773 627.756 587.494 625.037 587.494H613.211L613.4 727.447H624.717H636.033V731.862H570.377V727.447Z" fill="#2A381E"/>
<path d="M312.406 582.863H373.781V587.494H363.178H352.575L394.579 707.168L392.888 702.282L406.447 663.672L420.007 625.062L406.609 587.494H398.045H389.481V582.863H450.652V587.494H439.539H428.427L470.431 707.168H466.698L488.107 646.481L509.517 587.494H500.679H491.84V582.863H513.658H535.476V587.494H526.3H517.124L464.314 735.001H459.216L424.145 634.552H423.737L388.258 735.001H382.753L330.757 587.494H321.582H312.406V582.863Z" fill="#2A381E"/>
<path d="M176.992 727.005H188.309H199.625V587.052H188.309H176.992V582.863H293.624V619.067H291.382C289.614 613.626 287.711 608.882 285.672 604.836C283.633 600.651 282.102 598.513 278.708 595.441C275.195 592.26 272.079 590.54 268.137 589.145C264.194 587.75 259.437 587.052 253.863 587.052H220.016V650.457H233.269C237.755 650.457 241.561 650.038 244.688 649.201C247.814 648.364 250.465 646.829 252.64 644.597C254.951 642.225 256.854 639.086 258.349 635.18C259.981 631.134 261.544 625.972 263.039 619.694H265.282V684.776H263.039C262.088 680.731 261.068 676.824 259.981 673.057C259.029 669.291 257.602 665.942 255.699 663.013C253.931 660.083 251.485 657.781 248.358 656.107C245.367 654.293 241.425 653.386 236.532 653.386H220.016V727.005H258.553C266.03 727.005 270.348 726.553 276.987 723.032C282.37 720.177 286.216 716.864 289.342 712.4C292.469 707.796 294.78 703.052 296.275 698.17C297.77 693.287 298.722 689.241 299.13 686.032H301.373V731.862H176.992V727.005Z" fill="#2A381E"/>
<path d="M28 727.447H37.8503H47.7006V657.362V587.052H37.8503H28V582.863H71.6351L140.554 696.914H137.607V641.353V587.052H127.968H118.329V582.863H166.654V587.052H155.337H144.021V734.791H139.942L54.0995 594.373H53.6917V727.447H65.0083H76.3249V731.862H28V727.447Z" fill="#2A381E"/>
<path d="M722.21 647.262C722.21 647.262 727.149 645.602 732.734 645.056C741.76 644.173 750.786 646.379 752.973 646.379C756.804 646.379 757.162 645.352 759.289 643.697C762.749 641.003 763.363 637.841 764.586 633.658C765.808 629.475 766.419 624.177 766.419 617.763C766.419 610.513 765.469 604.727 763.567 600.404C761.801 595.943 759.425 592.596 756.437 590.366C753.584 588.135 750.667 587.833 747 587.136C743.469 586.439 740.206 586.509 736.675 586.509C734.23 586.509 731.717 586.578 729.137 586.718C726.692 586.718 724.587 586.857 722.821 587.136L722.21 647.262ZM679 727.124H690.307H701.614L701.837 587.136H690.53H679.223V582.627H717.932C719.562 582.627 721.191 582.627 722.821 582.627C724.451 582.488 726.081 582.349 727.711 582.209C729.341 582.209 730.97 582.209 732.6 582.209C734.23 582.07 735.86 582 737.49 582C745.503 582 752.566 582.488 758.678 583.464C764.789 584.301 770.494 586.88 775.791 591.202C780.545 594.967 783.872 599.219 785.774 603.96C787.811 608.7 788.829 613.162 788.829 617.345C788.829 619.436 788.422 622.155 787.607 625.501C786.928 628.708 785.269 632.026 782.718 635.54C780.316 638.849 778.683 640.645 775.285 642.85C773.996 643.686 770.557 645.938 764.11 647.262L758.953 648.144C760.672 648.586 761.044 648.872 764.11 649.909C768.184 651.287 770.426 652.321 773.996 654.763C778.237 657.664 780.514 659.9 783.94 663.774C787.398 667.684 789.509 670.536 790.867 675.277C791.682 678.066 792.225 681.272 792.497 684.897C792.904 688.383 793.176 692.008 793.311 695.773C793.583 699.537 793.787 703.163 793.923 706.648C794.194 710.134 794.602 713.062 795.145 715.432C795.96 719.057 797.25 722.334 799.016 725.262C800.782 728.19 803.634 729.654 807.573 729.654C809.338 729.654 811.172 729.305 813.073 728.608C814.975 727.911 816.673 726.795 818.167 725.262L820 727.562C819.321 728.12 818.506 728.747 817.555 729.445C816.74 730.002 815.654 730.56 814.296 731.118C812.937 731.675 811.24 732.094 809.202 732.373C807.301 732.791 804.924 733 802.072 733C796.639 733 792.089 732.303 788.422 730.909C784.891 729.514 782.038 727.493 779.865 724.843C777.692 722.055 776.062 718.709 774.976 714.805C774.025 710.761 773.346 706.09 772.939 700.792L771.512 681.76C770.969 674.789 771.011 666.609 768.838 662.705C766.665 658.801 764.11 655.582 760.242 653.88C757.233 652.557 754.967 652.014 751.216 651.233C747.563 650.473 744.069 649.909 741.76 649.909C739.451 649.909 735.454 649.437 731.443 649.909C727.815 650.336 722.21 652.115 722.21 652.115L721.987 727.124H733.294H744.601L744.824 731.536H679.223L679 727.124Z" fill="#2A381E"/>
<path d="M965.439 727.887H981.501V731.845H918.75V727.887H936.118L914.885 674.481C914.867 674.47 909.176 670.758 905.043 670.051C899.881 669.168 894.288 668.888 888.696 670.051C883.59 671.112 880.093 672.258 876.222 674.907C872.141 677.699 866.327 681.971 866.327 681.971L848.902 727.887H865.523V731.845H830.227V727.887H841.808L869.635 653.977L897.462 579H906.61L965.439 727.887ZM870.87 669.887L869.166 672.7C869.166 672.7 871.885 670.493 880.351 667.844C884.29 666.611 886.588 666.16 890.675 665.636C894.116 665.194 897.678 664.79 902.143 665.194C906.99 665.633 912.162 667.379 912.229 667.401L891.483 614.319L870.87 669.887Z" fill="#2A381E"/>
<path d="M651.677 213.438C722.486 213.438 787.91 236.519 840.851 275.575C791.291 291.362 623.175 328.565 644.841 362.659C668.581 400.016 628.964 393.499 535.726 414.705C445.859 435.145 443.001 484.553 423.087 532.96H332.484C332.484 356.493 475.392 213.438 651.677 213.438ZM859.815 290.708C927.813 349.305 970.869 436.099 970.869 532.96H642.22C618.431 499.661 553.238 465.398 644.841 440.729C697.792 426.468 752.283 411.302 722.168 385.059C678.941 347.389 826.822 302.302 859.815 290.708Z" fill="#2A381E"/>
<path d="M639 182V32" stroke="#2A381E" stroke-width="13" stroke-linecap="round"/>
<path d="M665.477 181.695L673.244 93.3431" stroke="#2A381E" stroke-width="13" stroke-linecap="round"/>
<path d="M612.078 181.695L603.34 93.3431" stroke="#2A381E" stroke-width="13" stroke-linecap="round"/>
<path d="M846.516 227.238L896.463 153.946" stroke="#2A381E" stroke-width="13" stroke-linecap="round"/>
<path d="M799.93 201.141L835.476 119.784" stroke="#2A381E" stroke-width="13" stroke-linecap="round"/>
<path d="M954.117 323.477L1029.15 276.177" stroke="#2A381E" stroke-width="13" stroke-linecap="round"/>
<path d="M921.797 280.965L986.834 220.528" stroke="#2A381E" stroke-width="13" stroke-linecap="round"/>
<path d="M1002.53 476.758L1089.27 458.234" stroke="#2A381E" stroke-width="13" stroke-linecap="round"/>
<path d="M986.844 425.711L1068.73 391.41" stroke="#2A381E" stroke-width="13" stroke-linecap="round"/>
<path d="M443.164 234.773L393.217 161.481" stroke="#2A381E" stroke-width="13" stroke-linecap="round"/>
<path d="M489.758 208.684L454.212 127.327" stroke="#2A381E" stroke-width="13" stroke-linecap="round"/>
<path d="M335.555 331.012L260.526 283.713" stroke="#2A381E" stroke-width="13" stroke-linecap="round"/>
<path d="M367.883 288.508L302.846 228.071" stroke="#2A381E" stroke-width="13" stroke-linecap="round"/>
<path d="M287.156 484.297L200.419 465.773" stroke="#2A381E" stroke-width="13" stroke-linecap="round"/>
<path d="M302.836 433.25L220.946 398.949" stroke="#2A381E" stroke-width="13" stroke-linecap="round"/>
<path d="M823.734 213.656L895.816 82.659" stroke="#2A381E" stroke-width="13" stroke-linecap="round"/>
<path d="M939.25 299.965L1060.72 212.783" stroke="#2A381E" stroke-width="13" stroke-linecap="round"/>
<path d="M999.859 450.703L1142.48 405.806" stroke="#2A381E" stroke-width="13" stroke-linecap="round"/>
<path d="M465.18 221.895L393.099 90.8973" stroke="#2A381E" stroke-width="13" stroke-linecap="round"/>
<path d="M350.914 307.703L228.391 222.005" stroke="#2A381E" stroke-width="13" stroke-linecap="round"/>
<path d="M291.289 458.859L149.574 411.192" stroke="#2A381E" stroke-width="13" stroke-linecap="round"/>
</svg>
