<?xml version="1.0" encoding="UTF-8"?>
<svg id="Layer_1" xmlns="http://www.w3.org/2000/svg" version="1.1" viewBox="0 0 1210.42 160.43">
  <!-- Generator: Adobe Illustrator 29.7.0, SVG Export Plug-In . SVG Version: 2.1.1 Build 138)  -->
  <defs>
    <style>
      .st0 {
        fill: #fff;
      }
    </style>
  </defs>
  <path class="st0" d="M1089.08,156.45h22.63V16.05h-22.63v-4.19h64.03v4.19h-21.01v65.29h-.77l30.79-33.27,30.79-32.01h-18.39v-4.19h42.2v4.19h-16.92l-51.79,55.03,74.01,85.36h13.46v4.41h-58.93v-4.41h18.36l-61.18-72.18h-1.63v72.18h21.01v4.41h-64.03v-4.41Z"/>
  <path class="st0" d="M1072.62,160.86h-3.06c-.95-1.12-2.04-2.09-3.26-2.93-1.22-.98-3.13-1.46-5.71-1.46-2.04,0-4.28.42-6.73,1.26-2.31.7-5.03,1.53-8.16,2.51-2.99.98-6.38,1.81-10.19,2.51-3.81.84-8.02,1.26-12.64,1.26-8.57,0-16.93-1.6-25.08-4.81-8.02-3.21-15.63-8.44-22.84-15.69-6.66-6.84-12.23-14.93-16.72-24.28-4.49-9.35-6.73-20.16-6.73-32.44,0-10.46,1.84-20.44,5.51-29.93,3.67-9.49,8.77-17.86,15.29-25.11,6.52-7.25,14.21-12.97,23.04-17.16,8.84-4.32,18.49-6.49,28.96-6.49,4.21,0,7.95.42,11.21,1.26,3.26.84,6.18,1.81,8.77,2.93,2.58.98,4.96,1.88,7.13,2.72,2.18.84,4.29,1.26,6.33,1.26,2.71,0,4.62-.42,5.7-1.26,1.23-.98,2.32-2.02,3.27-3.14h3.06v41.85h-2.25c-1.22-5.3-2.78-10.53-4.69-15.69-1.9-5.16-4.46-8.86-7.85-12.77-3.4-4.05-7.75-7.25-13.05-9.63-5.17-2.51-11.63-3.77-19.38-3.77-7.2,0-13.39,1.19-18.55,3.56-5.17,2.23-9.52,5.3-13.05,9.21-3.53,3.77-6.48,7.39-8.66,12.56-2.04,5.02-3.6,10.39-4.69,16.11-1.09,5.58-1.83,11.3-2.24,17.16-.27,5.72-.41,11.16-.41,16.32,0,14.65,1.16,26.79,3.47,36.41,2.31,9.63,5.6,15.35,9.68,20.93,4.21,5.58,9.24,9.49,15.08,11.72,5.85,2.23,12.31,3.35,19.37,3.35,9.11,0,16.45-1.33,22.03-3.98,5.57-2.65,10.06-6.07,13.45-10.25,3.4-4.32,5.89-7.26,7.66-12.56,1.76-5.44,3.33-10.81,4.69-16.11h2.24v44.57Z"/>
  <path class="st0" d="M541.21,156.45h22.63l-.19-139.95h-11.83c-2.72,0-5.78.28-9.18.84-3.4.42-6.86,1.74-10.4,3.98-3.4,2.23-6.73,5.79-9.99,10.67-3.13,4.74-5.66,9.67-7.97,18.18h-2.24V11.86h123.97v38.3h-2.24c-2.31-8.51-5.29-13.44-8.55-18.18-3.13-4.88-6.46-8.44-9.99-10.67-3.4-2.23-6.8-3.56-10.2-3.98-3.4-.56-6.46-.84-9.18-.84h-11.83l.19,139.95h22.63v4.41h-65.66v-4.41Z"/>
  <path class="st0" d="M283.24,11.86h61.38v4.63h-21.21l42,119.67-1.69-4.89,13.56-38.61,13.56-38.61-13.4-37.57h-17.13v-4.63h61.17v4.63h-22.23l42,119.67h-3.73l21.41-60.69,21.41-58.99h-17.68v-4.63h43.64v4.63h-18.35l-52.81,147.51h-5.1l-35.07-100.45h-.41l-35.48,100.45h-5.51l-52-147.51h-18.35v-4.63Z"/>
  <path class="st0" d="M147.83,156.01h22.63V16.05h-22.63v-4.19h116.63v36.2h-2.24c-1.77-5.44-3.67-10.18-5.71-14.23-2.04-4.19-3.57-6.32-6.96-9.4-3.51-3.18-6.63-4.9-10.57-6.3-3.94-1.4-8.7-2.09-14.27-2.09h-33.85v63.4h13.25c4.49,0,8.29-.42,11.42-1.26,3.13-.84,5.78-2.37,7.95-4.6,2.31-2.37,4.21-5.51,5.71-9.42,1.63-4.05,3.2-9.21,4.69-15.49h2.24v65.08h-2.24c-.95-4.04-1.97-7.95-3.06-11.72-.95-3.77-2.38-7.11-4.28-10.04-1.77-2.93-4.21-5.23-7.34-6.91-2.99-1.81-6.93-2.72-11.83-2.72h-16.52v73.62h38.54c7.48,0,11.79-.45,18.43-3.97,5.38-2.85,9.23-6.17,12.36-10.63,3.13-4.6,5.44-9.35,6.93-14.23,1.49-4.88,2.45-8.93,2.86-12.14h2.24v45.83h-124.38v-4.86Z"/>
  <path class="st0" d="M-1.17,156.45h19.7V16.05H-1.17v-4.19h43.64l68.92,114.05h-2.95V16.05h-19.28v-4.19h48.33v4.19h-22.63v147.74h-4.08L24.93,23.37h-.41v133.07h22.63v4.41H-1.17v-4.41Z"/>
  <path class="st0" d="M693.04,76.26s4.94-1.66,10.52-2.21c9.03-.88,18.05,1.32,20.24,1.32,3.83,0,4.19-1.03,6.32-2.68,3.46-2.69,4.07-5.86,5.3-10.04,1.22-4.18,1.83-9.48,1.83-15.89,0-7.25-.95-13.04-2.85-17.36-1.77-4.46-4.14-7.81-7.13-10.04-2.85-2.23-5.77-2.53-9.44-3.23-3.53-.7-6.79-.63-10.33-.63-2.45,0-4.96.07-7.54.21-2.45,0-4.55.14-6.32.42l-.61,60.13ZM649.83,156.12h22.61l.22-139.99h-22.61v-4.51h43.6c1.63-.14,3.26-.28,4.89-.42h4.89c1.63-.14,3.26-.21,4.89-.21,8.01,0,15.08.49,21.19,1.46,6.11.84,11.82,3.42,17.11,7.74,4.75,3.76,8.08,8.02,9.98,12.76,2.04,4.74,3.05,9.2,3.05,13.39,0,2.09-.41,4.81-1.22,8.16-.68,3.21-2.34,6.52-4.89,10.04-2.4,3.31-4.04,5.1-7.43,7.31-1.29.84-4.73,3.09-11.17,4.41l-5.16.88c1.72.44,2.09.73,5.16,1.76,4.07,1.38,6.32,2.41,9.89,4.85,4.24,2.9,6.52,5.14,9.94,9.01,3.46,3.91,5.57,6.76,6.93,11.5.82,2.79,1.36,6,1.63,9.62.41,3.49.68,7.11.81,10.88.27,3.76.48,7.39.61,10.87.27,3.49.68,6.41,1.22,8.78.82,3.62,2.1,6.9,3.87,9.83,1.77,2.93,4.62,4.39,8.56,4.39,1.77,0,3.6-.35,5.5-1.05,1.9-.7,3.6-1.81,5.09-3.35l1.83,2.3c-.68.56-1.49,1.18-2.45,1.88-.82.56-1.9,1.11-3.26,1.67-1.36.56-3.06.98-5.09,1.26-1.9.42-4.28.63-7.13.63-5.43,0-9.98-.7-13.65-2.09-3.53-1.39-6.38-3.42-8.56-6.07-2.17-2.79-3.8-6.13-4.89-10.04-.95-4.04-1.63-8.71-2.04-14.01l-1.43-19.03c-.54-6.97-.5-15.15-2.67-19.06-2.17-3.9-4.73-7.12-8.6-8.82-3.01-1.32-5.28-1.87-9.03-2.65-3.65-.76-7.15-1.32-9.46-1.32s-6.31-.47-10.32,0c-3.63.43-9.23,2.21-9.23,2.21l-.22,75.01h22.61l.22,4.41h-65.6l-.22-4.41Z"/>
  <path class="st0" d="M936.27,156.89h16.06v3.96h-62.75v-3.96h17.37l-21.23-53.41s-5.71-3.72-9.84-4.43c-5.16-.88-10.76-1.16-16.35,0-5.11,1.06-8.6,2.21-12.47,4.86-4.08,2.79-9.89,7.06-9.89,7.06l-17.43,45.92h16.62v3.96h-35.3v-3.96h11.58l27.83-73.91,27.83-74.98h9.15l58.83,148.89ZM841.7,98.89l-1.7,2.81s2.72-2.21,11.18-4.86c3.94-1.23,6.24-1.68,10.32-2.21,3.44-.44,7-.85,11.47-.44,4.85.44,10.02,2.18,10.09,2.21l-20.75-53.08-20.61,55.57Z"/>
</svg>