<?xml version="1.0" encoding="UTF-8"?>
<svg id="Layer_2" data-name="Layer 2" xmlns="http://www.w3.org/2000/svg" viewBox="0 0 566.58 182.22">
  <defs>
    <style>
      .cls-1 {
        fill: #2a381e;
      }

      .cls-2 {
        fill: #ecf1eb;
      }
    </style>
  </defs>
  <g id="Layer_1-2" data-name="Layer 1">
    <g>
      <g>
        <path class="cls-2" d="M3.42,82.19V6.95h23.83l32.26,50.5h1.37l-1.14-50.5h17.9v75.24h-21.55L21.55,28.84h-1.25l1.03,53.35H3.42Z"/>
        <path class="cls-2" d="M121.29,83.79c-5.02,0-9.5-.67-13.45-2-3.95-1.33-7.32-3.29-10.09-5.87-2.77-2.58-4.88-5.77-6.33-9.58-1.45-3.8-2.17-8.17-2.17-13.11s.7-9.19,2.11-13.22c1.41-4.03,3.42-7.5,6.04-10.43,2.62-2.92,5.85-5.19,9.69-6.78,3.84-1.6,8.15-2.39,12.94-2.39s9.14.78,12.83,2.34c3.69,1.56,6.73,3.86,9.12,6.9,2.39,3.04,4.16,6.75,5.3,11.12,1.14,4.37,1.52,9.37,1.14,14.99l-47.08.34v-9.58l36.59-.34-6.5,4.45c.53-3.8.3-6.9-.68-9.29-.99-2.39-2.43-4.14-4.33-5.24-1.9-1.1-3.95-1.65-6.16-1.65-2.66,0-5,.72-7.01,2.17-2.01,1.44-3.59,3.53-4.73,6.27s-1.71,6.08-1.71,10.03c0,6.23,1.35,10.75,4.05,13.57,2.7,2.81,6.14,4.22,10.32,4.22,2.05,0,3.76-.28,5.13-.85,1.37-.57,2.49-1.29,3.36-2.17.87-.87,1.56-1.84,2.05-2.91.49-1.06.89-2.09,1.2-3.08l15.96,3.42c-.61,2.81-1.58,5.36-2.91,7.64-1.33,2.28-3.12,4.26-5.36,5.93-2.24,1.67-4.94,2.95-8.09,3.82-3.15.87-6.9,1.31-11.23,1.31Z"/>
        <path class="cls-2" d="M168.49,82.19l-14.59-60.19h19.15l7.41,45.83h2.28l9.23-45.83h21.77l9.58,45.83h2.39l7.07-45.83h18.81l-14.59,60.19h-25.31l-8.32-45.37h-2.17l-7.75,45.37h-24.97Z"/>
        <path class="cls-2" d="M254.79,22.23V6.95h62.47v15.28h-62.47ZM276.68,82.19V6.95h18.47v75.24h-18.47Z"/>
        <path class="cls-2" d="M324.21,82.19V22h15.05l.34,20.41h2.28c.53-5.32,1.54-9.56,3.02-12.71,1.48-3.15,3.61-5.45,6.38-6.9,2.77-1.44,6.21-2.17,10.32-2.17.61,0,1.29.02,2.05.06.76.04,1.63.13,2.62.29l-.68,19.61c-1.22-.61-2.53-1.01-3.93-1.2-1.41-.19-2.64-.28-3.71-.28-2.96,0-5.53.57-7.69,1.71-2.17,1.14-3.88,2.89-5.13,5.24-1.25,2.36-2.07,5.32-2.45,8.89v27.25h-18.47Z"/>
        <path class="cls-2" d="M388.28,83.79c-3.35,0-6.31-.67-8.89-2-2.58-1.33-4.6-3.27-6.04-5.81-1.44-2.55-2.17-5.64-2.17-9.29,0-3.42.67-6.25,2-8.49,1.33-2.24,3.27-4.03,5.81-5.36,2.54-1.33,5.6-2.43,9.18-3.31,3.57-.87,7.64-1.65,12.2-2.34,2.2-.38,4.05-.74,5.53-1.08,1.48-.34,2.6-.89,3.36-1.65.76-.76,1.14-1.86,1.14-3.31,0-1.9-.68-3.53-2.05-4.9-1.37-1.37-3.57-2.05-6.61-2.05-2.13,0-4.05.38-5.76,1.14-1.71.76-3.17,1.86-4.39,3.31-1.22,1.44-2.13,3.19-2.74,5.24l-16.19-4.79c.99-3.19,2.37-5.97,4.16-8.32,1.79-2.35,3.93-4.31,6.44-5.87,2.51-1.56,5.38-2.7,8.61-3.42,3.23-.72,6.67-1.08,10.32-1.08,6.08,0,11.04.97,14.88,2.91,3.84,1.94,6.69,4.94,8.55,9.01,1.86,4.07,2.79,9.29,2.79,15.67v9.23c0,2.74.06,5.49.17,8.26.11,2.78.27,5.55.46,8.32.19,2.77.44,5.57.74,8.38h-16.19c-.3-1.75-.61-3.86-.91-6.33-.3-2.47-.53-5-.68-7.58h-2.17c-1.07,2.89-2.6,5.53-4.62,7.92-2.01,2.39-4.45,4.26-7.3,5.59-2.85,1.33-6.06,2-9.63,2ZM396.61,70.79c1.37,0,2.75-.25,4.16-.74,1.41-.49,2.75-1.18,4.05-2.05,1.29-.87,2.47-1.96,3.53-3.25,1.06-1.29,1.86-2.7,2.39-4.22l-.23-9.01,2.51.57c-1.45.91-3.04,1.64-4.79,2.17-1.75.53-3.52.95-5.3,1.25-1.79.3-3.53.63-5.24.97s-3.23.78-4.56,1.31c-1.33.53-2.38,1.25-3.13,2.17-.76.91-1.14,2.17-1.14,3.76,0,2.13.72,3.84,2.17,5.13,1.44,1.29,3.31,1.94,5.59,1.94Z"/>
        <path class="cls-2" d="M470.36,83.79c-5.17,0-9.73-.72-13.68-2.17-3.95-1.44-7.26-3.51-9.92-6.21-2.66-2.7-4.69-5.95-6.1-9.75-1.41-3.8-2.11-8.06-2.11-12.77s.7-9.27,2.11-13.22c1.41-3.95,3.44-7.37,6.1-10.26,2.66-2.89,5.93-5.11,9.8-6.67,3.88-1.56,8.32-2.34,13.34-2.34s9.35.8,13,2.39c3.65,1.6,6.63,3.84,8.95,6.73,2.32,2.89,3.89,6.23,4.73,10.03l-16.99,5.7c-.23-2.51-.84-4.56-1.82-6.16-.99-1.6-2.26-2.75-3.82-3.48-1.56-.72-3.25-1.08-5.07-1.08s-3.57.38-5.02,1.14c-1.44.76-2.66,1.9-3.65,3.42-.99,1.52-1.75,3.36-2.28,5.53-.53,2.17-.8,4.66-.8,7.47,0,4.03.51,7.39,1.54,10.09,1.03,2.7,2.55,4.73,4.56,6.1,2.01,1.37,4.46,2.05,7.35,2.05s5.28-.61,6.95-1.82c1.67-1.21,2.89-2.72,3.65-4.5.76-1.78,1.21-3.55,1.37-5.3l15.96,3.53c-.3,2.81-1.05,5.53-2.22,8.15-1.18,2.62-2.91,4.94-5.19,6.95-2.28,2.01-5.11,3.59-8.49,4.73-3.38,1.14-7.47,1.71-12.25,1.71Z"/>
        <path class="cls-2" d="M507.07,82.19V0h18.01v45.37c2.2-1.6,4.28-3.31,6.21-5.13,1.94-1.82,3.72-3.72,5.36-5.7,1.63-1.98,3.12-4.01,4.45-6.1,1.33-2.09,2.49-4.24,3.48-6.44h20.98c-.99,2.96-2.36,5.91-4.1,8.83-1.75,2.93-3.88,5.62-6.38,8.09-2.51,2.47-5.49,4.58-8.95,6.33-3.46,1.75-7.35,2.93-11.69,3.53v2.05c5.47-1.06,9.98-1.08,13.51-.06,3.53,1.03,6.37,2.68,8.49,4.96,2.13,2.28,3.76,4.94,4.9,7.98,1.14,3.04,2.09,6.04,2.85,9.01l2.39,9.46h-19.95l-1.14-5.7c-.76-3.72-1.65-6.91-2.68-9.58-1.03-2.66-2.49-4.73-4.39-6.21-1.9-1.48-4.64-2.22-8.21-2.22h-5.13v23.71h-18.01Z"/>
        <path class="cls-2" d="M33.29,180.79c-4.87,0-9.27-.46-13.22-1.37-3.95-.91-7.37-2.3-10.26-4.16-2.89-1.86-5.17-4.24-6.84-7.12-1.67-2.89-2.66-6.23-2.96-10.03l16.07-5.36c.23,3.19,1.14,5.85,2.74,7.98,1.6,2.13,3.74,3.7,6.44,4.73,2.7,1.03,5.72,1.54,9.06,1.54s5.87-.4,8.04-1.2,3.8-1.82,4.9-3.08c1.1-1.25,1.65-2.6,1.65-4.05,0-1.67-.72-3.06-2.17-4.16-1.44-1.1-3.42-2.05-5.93-2.85-2.51-.8-5.43-1.58-8.78-2.34-3.8-.91-7.52-1.9-11.17-2.96-3.65-1.06-6.95-2.45-9.92-4.16s-5.3-3.91-7.01-6.61c-1.71-2.7-2.56-6.1-2.56-10.2,0-4.63,1.18-8.66,3.53-12.08,2.36-3.42,5.81-6.1,10.37-8.04,4.56-1.94,10.18-2.91,16.87-2.91s12.24.95,16.87,2.85c4.63,1.9,8.21,4.54,10.72,7.92,2.51,3.38,3.88,7.32,4.1,11.8l-16.42,4.67c0-2.2-.36-4.14-1.08-5.81-.72-1.67-1.73-3.06-3.02-4.16-1.29-1.1-2.89-1.94-4.79-2.51-1.9-.57-4.07-.85-6.5-.85-2.89,0-5.34.34-7.35,1.03-2.01.68-3.52,1.58-4.5,2.68-.99,1.1-1.48,2.38-1.48,3.82,0,1.82.78,3.33,2.34,4.5,1.56,1.18,3.69,2.17,6.38,2.96,2.7.8,5.68,1.58,8.95,2.34,3.27.68,6.65,1.54,10.15,2.56,3.5,1.03,6.76,2.38,9.8,4.05,3.04,1.67,5.49,3.93,7.35,6.78,1.86,2.85,2.79,6.44,2.79,10.77,0,4.64-1.24,8.68-3.71,12.14-2.47,3.46-6.18,6.14-11.12,8.04-4.94,1.9-11.06,2.85-18.35,2.85Z"/>
        <path class="cls-2" d="M106.25,180.79c-5.02,0-9.5-.67-13.45-2-3.95-1.33-7.32-3.29-10.09-5.87-2.77-2.58-4.88-5.77-6.33-9.58-1.45-3.8-2.17-8.17-2.17-13.11s.7-9.19,2.11-13.22c1.41-4.03,3.42-7.5,6.04-10.43,2.62-2.92,5.85-5.19,9.69-6.78,3.84-1.6,8.15-2.39,12.94-2.39s9.14.78,12.83,2.34c3.69,1.56,6.73,3.86,9.12,6.9,2.39,3.04,4.16,6.75,5.3,11.12,1.14,4.37,1.52,9.37,1.14,14.99l-47.08.34v-9.58l36.59-.34-6.5,4.45c.53-3.8.3-6.9-.68-9.29-.99-2.39-2.43-4.14-4.33-5.24-1.9-1.1-3.95-1.65-6.16-1.65-2.66,0-5,.72-7.01,2.17-2.01,1.44-3.59,3.53-4.73,6.27s-1.71,6.08-1.71,10.03c0,6.23,1.35,10.75,4.05,13.57,2.7,2.81,6.14,4.22,10.32,4.22,2.05,0,3.76-.28,5.13-.85,1.37-.57,2.49-1.29,3.36-2.17.87-.87,1.56-1.84,2.05-2.91.49-1.06.89-2.09,1.2-3.08l15.96,3.42c-.61,2.81-1.58,5.36-2.91,7.64-1.33,2.28-3.12,4.26-5.36,5.93-2.24,1.67-4.94,2.95-8.09,3.82-3.15.87-6.9,1.31-11.23,1.31Z"/>
        <path class="cls-2" d="M144.55,179.19v-60.19h15.05l.34,20.41h2.28c.53-5.32,1.54-9.56,3.02-12.71,1.48-3.15,3.61-5.45,6.38-6.9,2.77-1.44,6.21-2.17,10.32-2.17.61,0,1.29.02,2.05.06.76.04,1.63.13,2.62.29l-.68,19.61c-1.22-.61-2.53-1.01-3.93-1.2-1.41-.19-2.64-.28-3.71-.28-2.96,0-5.53.57-7.69,1.71-2.17,1.14-3.88,2.89-5.13,5.24-1.25,2.36-2.07,5.32-2.45,8.89v27.25h-18.47Z"/>
        <path class="cls-2" d="M211.12,179.19l-19.72-60.08h20.41l11.4,45.71h1.94l11.63-45.71h19.49l-19.84,60.08h-25.31Z"/>
        <path class="cls-2" d="M273.48,110.57c-3.5,0-6.18-.74-8.04-2.22-1.86-1.48-2.79-3.59-2.79-6.33,0-2.89.93-5.07,2.79-6.55,1.86-1.48,4.54-2.22,8.04-2.22s6.29.74,8.15,2.22c1.86,1.48,2.79,3.63,2.79,6.44s-.93,4.96-2.79,6.44c-1.86,1.48-4.58,2.22-8.15,2.22ZM264.25,179.19v-60.19h18.35v60.19h-18.35Z"/>
        <path class="cls-2" d="M325.24,180.79c-5.17,0-9.73-.72-13.68-2.17-3.95-1.44-7.26-3.51-9.92-6.21-2.66-2.7-4.69-5.95-6.1-9.75-1.41-3.8-2.11-8.06-2.11-12.77s.7-9.27,2.11-13.22c1.41-3.95,3.44-7.37,6.1-10.26,2.66-2.89,5.93-5.11,9.8-6.67,3.88-1.56,8.32-2.34,13.34-2.34s9.35.8,13,2.39c3.65,1.6,6.63,3.84,8.95,6.73,2.32,2.89,3.89,6.23,4.73,10.03l-16.99,5.7c-.23-2.51-.84-4.56-1.82-6.16-.99-1.6-2.26-2.75-3.82-3.48-1.56-.72-3.25-1.08-5.07-1.08s-3.57.38-5.02,1.14c-1.44.76-2.66,1.9-3.65,3.42-.99,1.52-1.75,3.36-2.28,5.53-.53,2.17-.8,4.66-.8,7.47,0,4.03.51,7.39,1.54,10.09,1.03,2.7,2.55,4.73,4.56,6.1,2.01,1.37,4.46,2.05,7.35,2.05s5.28-.61,6.95-1.82c1.67-1.21,2.89-2.72,3.65-4.5.76-1.78,1.21-3.55,1.37-5.3l15.96,3.53c-.3,2.81-1.05,5.53-2.22,8.15-1.18,2.62-2.91,4.94-5.19,6.95-2.28,2.01-5.11,3.59-8.49,4.73-3.38,1.14-7.47,1.71-12.25,1.71Z"/>
        <path class="cls-2" d="M390.56,180.79c-5.02,0-9.5-.67-13.45-2-3.95-1.33-7.32-3.29-10.09-5.87-2.77-2.58-4.88-5.77-6.33-9.58-1.45-3.8-2.17-8.17-2.17-13.11s.7-9.19,2.11-13.22c1.41-4.03,3.42-7.5,6.04-10.43,2.62-2.92,5.85-5.19,9.69-6.78,3.84-1.6,8.15-2.39,12.94-2.39s9.14.78,12.83,2.34c3.69,1.56,6.73,3.86,9.12,6.9,2.39,3.04,4.16,6.75,5.3,11.12,1.14,4.37,1.52,9.37,1.14,14.99l-47.08.34v-9.58l36.59-.34-6.5,4.45c.53-3.8.3-6.9-.68-9.29-.99-2.39-2.43-4.14-4.33-5.24-1.9-1.1-3.95-1.65-6.16-1.65-2.66,0-5,.72-7.01,2.17-2.01,1.44-3.59,3.53-4.73,6.27s-1.71,6.08-1.71,10.03c0,6.23,1.35,10.75,4.05,13.57,2.7,2.81,6.14,4.22,10.32,4.22,2.05,0,3.76-.28,5.13-.85,1.37-.57,2.49-1.29,3.36-2.17.87-.87,1.56-1.84,2.05-2.91.49-1.06.89-2.09,1.2-3.08l15.96,3.42c-.61,2.81-1.58,5.36-2.91,7.64-1.33,2.28-3.12,4.26-5.36,5.93-2.24,1.67-4.94,2.95-8.09,3.82-3.15.87-6.9,1.31-11.23,1.31Z"/>
        <path class="cls-2" d="M454.06,180.79c-4.03,0-7.68-.36-10.94-1.08-3.27-.72-6.12-1.77-8.55-3.14-2.43-1.37-4.43-3.02-5.99-4.96-1.56-1.94-2.64-4.08-3.25-6.44l13.68-6.04c.53,1.29,1.46,2.6,2.79,3.93,1.33,1.33,3.12,2.41,5.36,3.25,2.24.84,4.96,1.25,8.15,1.25s5.42-.44,7.12-1.31c1.71-.87,2.56-2.15,2.56-3.82,0-1.21-.48-2.18-1.42-2.91-.95-.72-2.38-1.37-4.28-1.94-1.9-.57-4.26-1.12-7.07-1.65-2.89-.61-5.81-1.31-8.78-2.11-2.96-.8-5.74-1.9-8.32-3.31-2.58-1.41-4.66-3.27-6.21-5.59-1.56-2.32-2.34-5.26-2.34-8.83s.99-6.97,2.96-9.75c1.98-2.77,4.92-4.96,8.83-6.56,3.91-1.6,8.68-2.39,14.31-2.39,5.02,0,9.42.65,13.22,1.94,3.8,1.29,6.97,3.14,9.52,5.53,2.54,2.39,4.31,5.26,5.3,8.61l-14.71,5.24c-.38-1.67-1.16-3.12-2.34-4.33-1.18-1.21-2.66-2.15-4.45-2.79-1.79-.64-3.9-.97-6.33-.97-2.96,0-5.26.46-6.9,1.37-1.64.91-2.45,2.13-2.45,3.65,0,1.22.55,2.22,1.65,3.02,1.1.8,2.68,1.46,4.73,1.99,2.05.53,4.48,1.1,7.3,1.71,2.96.61,5.91,1.31,8.83,2.11,2.92.8,5.59,1.86,7.98,3.19,2.39,1.33,4.29,3.08,5.7,5.24,1.41,2.17,2.11,4.96,2.11,8.38,0,4.03-1.07,7.51-3.19,10.43-2.13,2.93-5.26,5.17-9.41,6.73-4.14,1.56-9.22,2.34-15.22,2.34Z"/>
      </g>
      <g>
        <path class="cls-1" d="M69.63,126.38v-30.36h9.61l13.02,20.38h.55l-.46-20.38h7.22v30.36h-8.69l-13.94-21.53h-.51l.41,21.53h-7.22Z"/>
        <path class="cls-1" d="M117.19,127.02c-2.02,0-3.83-.27-5.43-.81s-2.95-1.33-4.07-2.37c-1.12-1.04-1.97-2.33-2.55-3.86-.58-1.53-.87-3.3-.87-5.29s.28-3.71.85-5.34c.57-1.62,1.38-3.03,2.44-4.21,1.06-1.18,2.36-2.09,3.91-2.74,1.55-.64,3.29-.97,5.22-.97s3.69.31,5.18.94c1.49.63,2.71,1.56,3.68,2.78.97,1.23,1.68,2.72,2.14,4.48.46,1.76.61,3.78.46,6.05l-19,.14v-3.86l14.77-.14-2.62,1.79c.21-1.53.12-2.78-.28-3.75-.4-.97-.98-1.67-1.75-2.12-.77-.44-1.59-.67-2.48-.67-1.07,0-2.02.29-2.83.87-.81.58-1.45,1.43-1.91,2.53s-.69,2.45-.69,4.05c0,2.51.54,4.34,1.63,5.47,1.09,1.14,2.48,1.7,4.16,1.7.83,0,1.52-.12,2.07-.35s1-.52,1.36-.87c.35-.35.63-.74.83-1.17.2-.43.36-.84.48-1.24l6.44,1.38c-.25,1.13-.64,2.16-1.17,3.08-.54.92-1.26,1.72-2.16,2.39-.91.67-1.99,1.19-3.27,1.54-1.27.35-2.78.53-4.53.53Z"/>
        <path class="cls-1" d="M136.24,126.38l-5.89-24.29h7.73l2.99,18.49h.92l3.73-18.49h8.79l3.86,18.49h.97l2.85-18.49h7.59l-5.89,24.29h-10.21l-3.36-18.31h-.87l-3.13,18.31h-10.07Z"/>
        <path class="cls-1" d="M171.06,102.18v-6.16h25.21v6.16h-25.21ZM179.89,126.38v-30.36h7.45v30.36h-7.45Z"/>
        <path class="cls-1" d="M199.07,126.38v-24.29h6.07l.14,8.23h.92c.21-2.15.62-3.86,1.22-5.13.6-1.27,1.46-2.2,2.58-2.78,1.12-.58,2.51-.87,4.16-.87.25,0,.52,0,.83.02.31.02.66.05,1.06.11l-.28,7.91c-.49-.25-1.02-.41-1.59-.48-.57-.08-1.07-.12-1.5-.12-1.2,0-2.23.23-3.1.69-.87.46-1.56,1.17-2.07,2.12-.51.95-.84,2.15-.99,3.59v10.99h-7.45Z"/>
        <path class="cls-1" d="M224.92,127.02c-1.35,0-2.55-.27-3.59-.81-1.04-.54-1.86-1.32-2.44-2.35-.58-1.03-.87-2.28-.87-3.75,0-1.38.27-2.52.8-3.43.54-.9,1.32-1.62,2.35-2.16,1.03-.54,2.26-.98,3.7-1.33,1.44-.35,3.08-.67,4.92-.94.89-.15,1.63-.3,2.23-.44.6-.14,1.05-.36,1.36-.67.31-.31.46-.75.46-1.33,0-.77-.28-1.43-.83-1.98-.55-.55-1.44-.83-2.67-.83-.86,0-1.63.15-2.32.46-.69.31-1.28.75-1.77,1.33s-.86,1.29-1.1,2.12l-6.53-1.93c.4-1.29.96-2.41,1.68-3.36.72-.95,1.59-1.74,2.6-2.37,1.01-.63,2.17-1.09,3.47-1.38,1.3-.29,2.69-.44,4.16-.44,2.45,0,4.45.39,6,1.17,1.55.78,2.7,1.99,3.45,3.63.75,1.64,1.13,3.75,1.13,6.33v3.73c0,1.1.02,2.22.07,3.34.05,1.12.11,2.24.18,3.36.08,1.12.18,2.25.3,3.38h-6.53c-.12-.71-.25-1.56-.37-2.55-.12-1-.21-2.02-.28-3.06h-.87c-.43,1.17-1.05,2.23-1.86,3.2s-1.79,1.72-2.94,2.25c-1.15.54-2.45.81-3.89.81ZM228.28,121.78c.55,0,1.11-.1,1.68-.3.57-.2,1.11-.48,1.63-.83.52-.35,1-.79,1.43-1.31.43-.52.75-1.09.97-1.7l-.09-3.63,1.01.23c-.58.37-1.23.66-1.93.87-.71.21-1.42.38-2.14.51-.72.12-1.43.25-2.12.39-.69.14-1.3.31-1.84.53-.54.22-.96.51-1.26.87-.31.37-.46.87-.46,1.52,0,.86.29,1.55.87,2.07.58.52,1.33.78,2.25.78Z"/>
        <path class="cls-1" d="M258.04,127.02c-2.09,0-3.93-.29-5.52-.87-1.59-.58-2.93-1.42-4-2.51-1.07-1.09-1.89-2.4-2.46-3.93-.57-1.53-.85-3.25-.85-5.15s.28-3.74.85-5.34c.57-1.59,1.39-2.97,2.46-4.14,1.07-1.17,2.39-2.06,3.96-2.69,1.56-.63,3.36-.94,5.38-.94s3.77.32,5.24.97c1.47.64,2.67,1.55,3.61,2.71.94,1.17,1.57,2.51,1.91,4.05l-6.85,2.3c-.09-1.01-.34-1.84-.74-2.48s-.91-1.11-1.54-1.4c-.63-.29-1.31-.44-2.05-.44s-1.44.15-2.02.46c-.58.31-1.07.77-1.47,1.38-.4.61-.71,1.36-.92,2.23-.21.87-.32,1.88-.32,3.01,0,1.63.21,2.98.62,4.07.41,1.09,1.03,1.91,1.84,2.46.81.55,1.8.83,2.97.83s2.13-.25,2.81-.74c.67-.49,1.17-1.1,1.47-1.82.31-.72.49-1.43.55-2.14l6.44,1.43c-.12,1.13-.42,2.23-.9,3.29-.48,1.06-1.17,1.99-2.09,2.81-.92.81-2.06,1.45-3.43,1.91-1.37.46-3.01.69-4.95.69Z"/>
        <path class="cls-1" d="M272.86,126.38v-33.17h7.27v18.31c.89-.64,1.72-1.33,2.51-2.07.78-.74,1.5-1.5,2.16-2.3.66-.8,1.26-1.62,1.79-2.46.54-.84,1-1.71,1.4-2.6h8.46c-.4,1.2-.95,2.38-1.66,3.56-.71,1.18-1.56,2.27-2.58,3.27-1.01,1-2.22,1.85-3.61,2.55-1.4.71-2.97,1.18-4.72,1.43v.83c2.21-.43,4.03-.44,5.45-.02s2.57,1.08,3.43,2,1.52,1.99,1.98,3.22c.46,1.23.84,2.44,1.15,3.63l.97,3.82h-8.05l-.46-2.3c-.31-1.5-.67-2.79-1.08-3.86-.41-1.07-1-1.91-1.77-2.51-.77-.6-1.87-.9-3.31-.9h-2.07v9.57h-7.27Z"/>
        <path class="cls-1" d="M81.68,182.22c-1.96,0-3.74-.18-5.34-.55-1.59-.37-2.97-.93-4.14-1.68-1.17-.75-2.09-1.71-2.76-2.88-.67-1.17-1.07-2.51-1.2-4.05l6.49-2.16c.09,1.29.46,2.36,1.1,3.22.64.86,1.51,1.5,2.6,1.91,1.09.41,2.31.62,3.66.62s2.37-.16,3.24-.48c.87-.32,1.53-.74,1.98-1.24.44-.51.67-1.05.67-1.63,0-.67-.29-1.23-.87-1.68-.58-.44-1.38-.83-2.39-1.15-1.01-.32-2.19-.64-3.54-.94-1.53-.37-3.04-.77-4.51-1.2-1.47-.43-2.81-.99-4-1.68-1.2-.69-2.14-1.58-2.83-2.67-.69-1.09-1.04-2.46-1.04-4.12,0-1.87.48-3.5,1.43-4.88.95-1.38,2.35-2.46,4.19-3.24,1.84-.78,4.11-1.17,6.81-1.17s4.94.38,6.81,1.15c1.87.77,3.31,1.83,4.32,3.2,1.01,1.37,1.56,2.95,1.66,4.76l-6.62,1.89c0-.89-.15-1.67-.44-2.35-.29-.67-.7-1.23-1.22-1.68-.52-.44-1.17-.78-1.93-1.01s-1.64-.35-2.62-.35c-1.17,0-2.15.14-2.97.41s-1.42.64-1.82,1.08c-.4.44-.6.96-.6,1.54,0,.74.31,1.34.94,1.82.63.48,1.49.87,2.58,1.2,1.09.32,2.29.64,3.61.94,1.32.28,2.68.62,4.09,1.03,1.41.41,2.73.96,3.96,1.63,1.23.67,2.22,1.59,2.97,2.74.75,1.15,1.13,2.6,1.13,4.35,0,1.87-.5,3.5-1.5,4.9-1,1.4-2.49,2.48-4.49,3.24s-4.46,1.15-7.41,1.15Z"/>
        <path class="cls-1" d="M111.12,182.22c-2.02,0-3.83-.27-5.43-.81s-2.95-1.33-4.07-2.37c-1.12-1.04-1.97-2.33-2.55-3.86-.58-1.53-.87-3.3-.87-5.29s.28-3.71.85-5.34c.57-1.62,1.38-3.03,2.44-4.21,1.06-1.18,2.36-2.09,3.91-2.74,1.55-.64,3.29-.97,5.22-.97s3.69.31,5.18.94c1.49.63,2.71,1.56,3.68,2.78.97,1.23,1.68,2.72,2.14,4.48.46,1.76.61,3.78.46,6.05l-19,.14v-3.86l14.77-.14-2.62,1.79c.21-1.53.12-2.78-.28-3.75-.4-.97-.98-1.67-1.75-2.12-.77-.44-1.59-.67-2.48-.67-1.07,0-2.02.29-2.83.87-.81.58-1.45,1.43-1.91,2.53s-.69,2.45-.69,4.05c0,2.51.54,4.34,1.63,5.47,1.09,1.14,2.48,1.7,4.16,1.7.83,0,1.52-.12,2.07-.35s1-.52,1.36-.87c.35-.35.63-.74.83-1.17.2-.43.36-.84.48-1.24l6.44,1.38c-.25,1.13-.64,2.16-1.17,3.08-.54.92-1.26,1.72-2.16,2.39-.91.67-1.99,1.19-3.27,1.54-1.27.35-2.78.53-4.53.53Z"/>
        <path class="cls-1" d="M126.58,181.58v-24.29h6.07l.14,8.23h.92c.21-2.15.62-3.86,1.22-5.13.6-1.27,1.46-2.2,2.58-2.78,1.12-.58,2.51-.87,4.16-.87.25,0,.52,0,.83.02.31.02.66.05,1.06.11l-.28,7.91c-.49-.25-1.02-.41-1.59-.48-.57-.08-1.07-.12-1.5-.12-1.2,0-2.23.23-3.1.69-.87.46-1.56,1.17-2.07,2.12-.51.95-.84,2.15-.99,3.59v10.99h-7.45Z"/>
        <path class="cls-1" d="M153.44,181.58l-7.96-24.24h8.23l4.6,18.45h.78l4.69-18.45h7.87l-8,24.24h-10.21Z"/>
        <path class="cls-1" d="M178.6,153.89c-1.41,0-2.49-.3-3.24-.9-.75-.6-1.13-1.45-1.13-2.55,0-1.17.38-2.05,1.13-2.65.75-.6,1.83-.9,3.24-.9s2.54.3,3.29.9c.75.6,1.13,1.46,1.13,2.6s-.38,2-1.13,2.6c-.75.6-1.85.9-3.29.9ZM174.88,181.58v-24.29h7.41v24.29h-7.41Z"/>
        <path class="cls-1" d="M199.49,182.22c-2.09,0-3.93-.29-5.52-.87-1.59-.58-2.93-1.42-4-2.51-1.07-1.09-1.89-2.4-2.46-3.93-.57-1.53-.85-3.25-.85-5.15s.28-3.74.85-5.34c.57-1.59,1.39-2.97,2.46-4.14,1.07-1.17,2.39-2.06,3.96-2.69,1.56-.63,3.36-.94,5.38-.94s3.77.32,5.24.97c1.47.64,2.67,1.55,3.61,2.71.94,1.17,1.57,2.51,1.91,4.05l-6.85,2.3c-.09-1.01-.34-1.84-.74-2.48s-.91-1.11-1.54-1.4c-.63-.29-1.31-.44-2.05-.44s-1.44.15-2.02.46c-.58.31-1.07.77-1.47,1.38-.4.61-.71,1.36-.92,2.23-.21.87-.32,1.88-.32,3.01,0,1.63.21,2.98.62,4.07.41,1.09,1.03,1.91,1.84,2.46.81.55,1.8.83,2.97.83s2.13-.25,2.81-.74c.67-.49,1.17-1.1,1.47-1.82.31-.72.49-1.43.55-2.14l6.44,1.43c-.12,1.13-.42,2.23-.9,3.29-.48,1.06-1.17,1.99-2.09,2.81-.92.81-2.06,1.45-3.43,1.91-1.37.46-3.01.69-4.95.69Z"/>
        <path class="cls-1" d="M225.84,182.22c-2.02,0-3.83-.27-5.43-.81s-2.95-1.33-4.07-2.37c-1.12-1.04-1.97-2.33-2.55-3.86-.58-1.53-.87-3.3-.87-5.29s.28-3.71.85-5.34c.57-1.62,1.38-3.03,2.44-4.21,1.06-1.18,2.36-2.09,3.91-2.74,1.55-.64,3.29-.97,5.22-.97s3.69.31,5.18.94c1.49.63,2.71,1.56,3.68,2.78.97,1.23,1.68,2.72,2.14,4.48.46,1.76.61,3.78.46,6.05l-19,.14v-3.86l14.77-.14-2.62,1.79c.21-1.53.12-2.78-.28-3.75-.4-.97-.98-1.67-1.75-2.12-.77-.44-1.59-.67-2.48-.67-1.07,0-2.02.29-2.83.87-.81.58-1.45,1.43-1.91,2.53s-.69,2.45-.69,4.05c0,2.51.54,4.34,1.63,5.47,1.09,1.14,2.48,1.7,4.16,1.7.83,0,1.52-.12,2.07-.35s1-.52,1.36-.87c.35-.35.63-.74.83-1.17.2-.43.36-.84.48-1.24l6.44,1.38c-.25,1.13-.64,2.16-1.17,3.08-.54.92-1.26,1.72-2.16,2.39-.91.67-1.99,1.19-3.27,1.54-1.27.35-2.78.53-4.53.53Z"/>
        <path class="cls-1" d="M251.47,182.22c-1.63,0-3.1-.15-4.42-.44-1.32-.29-2.47-.71-3.45-1.27-.98-.55-1.79-1.22-2.42-2-.63-.78-1.07-1.65-1.31-2.6l5.52-2.44c.21.52.59,1.05,1.13,1.59.54.54,1.26.97,2.16,1.31.9.34,2,.51,3.29.51s2.18-.18,2.88-.53c.69-.35,1.04-.87,1.04-1.54,0-.49-.19-.88-.58-1.17-.38-.29-.96-.55-1.72-.78-.77-.23-1.72-.45-2.85-.67-1.17-.25-2.35-.53-3.54-.85-1.2-.32-2.32-.77-3.36-1.33-1.04-.57-1.88-1.32-2.51-2.25-.63-.94-.94-2.12-.94-3.56s.4-2.81,1.2-3.93c.8-1.12,1.98-2,3.56-2.65,1.58-.64,3.5-.97,5.77-.97,2.02,0,3.8.26,5.34.78,1.53.52,2.81,1.27,3.84,2.23,1.03.97,1.74,2.12,2.14,3.47l-5.93,2.12c-.15-.67-.47-1.26-.94-1.75-.48-.49-1.07-.87-1.79-1.13-.72-.26-1.57-.39-2.55-.39-1.2,0-2.12.18-2.78.55-.66.37-.99.86-.99,1.47,0,.49.22.9.67,1.22.44.32,1.08.59,1.91.81.83.21,1.81.44,2.94.69,1.2.25,2.38.53,3.56.85,1.18.32,2.25.75,3.22,1.29.97.54,1.73,1.24,2.3,2.12.57.87.85,2,.85,3.38,0,1.63-.43,3.03-1.29,4.21-.86,1.18-2.12,2.09-3.79,2.71-1.67.63-3.72.94-6.14.94Z"/>
      </g>
    </g>
  </g>
</svg>
