<?xml version="1.0" encoding="UTF-8"?>
<svg id="Layer_1" data-name="Layer 1" xmlns="http://www.w3.org/2000/svg" viewBox="0 0 942.6 494.92">
  <defs>
    <style>
      .cls-1 {
        fill: #ecf1eb;
      }

      .cls-2 {
        fill: #536440;
      }
    </style>
  </defs>
  <g>
    <path class="cls-1" d="M8.23,179.45V13.8h36.14v165.64H8.23ZM15.76,179.45v-30.37h98.63v30.37H15.76Z"/>
    <path class="cls-1" d="M192.7,182.96c-13.22,0-24.85-2.64-34.89-7.91-10.04-5.27-17.91-13.05-23.59-23.34-5.69-10.29-8.53-23.13-8.53-38.52s2.89-28.19,8.66-38.4c5.77-10.2,13.72-17.86,23.84-22.96,10.12-5.1,21.62-7.65,34.51-7.65s24.89,2.6,35.01,7.78c10.12,5.19,18.07,12.93,23.84,23.22,5.77,10.29,8.66,23.13,8.66,38.52s-2.97,28.49-8.91,38.78c-5.94,10.29-13.97,17.94-24.09,22.96-10.13,5.02-21.63,7.53-34.51,7.53ZM193.95,156.1c6.53,0,12-1.51,16.44-4.52,4.43-3.01,7.78-7.57,10.04-13.68,2.26-6.11,3.39-13.51,3.39-22.21,0-9.2-1.22-17.02-3.64-23.47-2.43-6.44-5.98-11.38-10.67-14.81-4.69-3.43-10.63-5.15-17.82-5.15-6.19,0-11.54,1.47-16.06,4.39-4.52,2.93-7.95,7.45-10.29,13.55-2.34,6.11-3.51,13.6-3.51,22.46,0,14.22,2.84,25.02,8.53,32.38,5.69,7.36,13.55,11.04,23.59,11.04Z"/>
    <path class="cls-1" d="M285.81,179.45V47.68h29.61l-.25,39.4h5.02c2.17-9.54,5.27-17.48,9.29-23.84,4.02-6.36,9.07-11.12,15.18-14.31,6.11-3.18,13.34-4.77,21.71-4.77,15.22,0,26.81,5.36,34.76,16.06,7.94,10.71,11.92,27.52,11.92,50.45v68.77h-36.39v-64.75c0-14.05-2.05-24.3-6.15-30.74-4.1-6.44-10.08-9.66-17.94-9.66-6.69,0-12.3,2.09-16.82,6.27-4.52,4.18-7.91,9.66-10.16,16.44s-3.47,14.35-3.64,22.71v59.73h-36.14Z"/>
    <path class="cls-1" d="M492.36,182.96c-11.04,0-20.71-2.85-28.99-8.53-8.28-5.69-14.68-13.72-19.2-24.09-4.52-10.37-6.78-22.67-6.78-36.89,0-13.38,2.01-25.26,6.02-35.64,4.02-10.37,9.95-18.49,17.82-24.34,7.86-5.85,17.65-8.78,29.36-8.78,8.53,0,15.73,1.59,21.58,4.77,5.85,3.18,10.67,7.82,14.43,13.93,3.76,6.11,6.73,13.43,8.91,21.96h5.77c-1.17-5.35-2.22-10.58-3.14-15.69-.92-5.1-1.63-10-2.13-14.68-.5-4.68-.75-8.78-.75-12.3V0h36.14v179.45h-30.12v-38.15h-5.02c-1.84,9.37-4.69,17.15-8.53,23.34-3.85,6.19-8.75,10.79-14.68,13.8-5.94,3.01-12.84,4.52-20.71,4.52ZM504.41,153.34c5.52,0,10.2-1.17,14.05-3.51,3.85-2.34,7.03-5.4,9.54-9.16s4.35-7.86,5.52-12.3c1.17-4.43,1.76-8.57,1.76-12.42v-4.77c0-3.18-.46-6.48-1.38-9.91-.92-3.43-2.22-6.82-3.89-10.16-1.67-3.35-3.76-6.31-6.27-8.91-2.51-2.59-5.44-4.64-8.78-6.15-3.35-1.51-7.03-2.26-11.04-2.26-6.02,0-11.13,1.67-15.31,5.02-4.18,3.35-7.45,7.99-9.79,13.93-2.34,5.94-3.51,12.84-3.51,20.71s1.21,15.06,3.64,21.08c2.42,6.02,5.81,10.67,10.16,13.93,4.35,3.26,9.45,4.89,15.31,4.89Z"/>
    <path class="cls-1" d="M664.53,182.96c-13.22,0-24.85-2.64-34.89-7.91-10.04-5.27-17.91-13.05-23.59-23.34-5.69-10.29-8.53-23.13-8.53-38.52s2.89-28.19,8.66-38.4c5.77-10.2,13.72-17.86,23.84-22.96,10.12-5.1,21.62-7.65,34.51-7.65s24.89,2.6,35.01,7.78c10.12,5.19,18.07,12.93,23.84,23.22,5.77,10.29,8.66,23.13,8.66,38.52s-2.97,28.49-8.91,38.78c-5.94,10.29-13.97,17.94-24.09,22.96-10.13,5.02-21.63,7.53-34.51,7.53ZM665.78,156.1c6.53,0,12-1.51,16.44-4.52,4.43-3.01,7.78-7.57,10.04-13.68,2.26-6.11,3.39-13.51,3.39-22.21,0-9.2-1.22-17.02-3.64-23.47-2.43-6.44-5.98-11.38-10.67-14.81-4.69-3.43-10.63-5.15-17.82-5.15-6.19,0-11.54,1.47-16.06,4.39-4.52,2.93-7.95,7.45-10.29,13.55-2.34,6.11-3.51,13.6-3.51,22.46,0,14.22,2.84,25.02,8.53,32.38,5.69,7.36,13.55,11.04,23.59,11.04Z"/>
    <path class="cls-1" d="M757.64,179.45V47.68h29.61l-.25,39.4h5.02c2.17-9.54,5.27-17.48,9.29-23.84,4.02-6.36,9.07-11.12,15.18-14.31,6.11-3.18,13.34-4.77,21.71-4.77,15.22,0,26.81,5.36,34.76,16.06,7.94,10.71,11.92,27.52,11.92,50.45v68.77h-36.39v-64.75c0-14.05-2.05-24.3-6.15-30.74-4.1-6.44-10.08-9.66-17.94-9.66-6.69,0-12.3,2.09-16.82,6.27-4.52,4.18-7.91,9.66-10.16,16.44s-3.47,14.35-3.64,22.71v59.73h-36.14Z"/>
    <path class="cls-1" d="M900.44,212.57c3.01-7.7,5.14-14.89,6.4-21.58,1.25-6.69,2.01-13.43,2.26-20.2s.38-14.18.38-22.21h33.13c0,11.38-.67,21.12-2.01,29.24-1.34,8.11-3.14,14.97-5.4,20.58-2.26,5.6-4.56,10.33-6.9,14.18h-27.86Z"/>
    <path class="cls-1" d="M80.01,484.13c-12.05,0-22.84-1.88-32.38-5.65s-17.69-9.29-24.47-16.56-11.96-16.23-15.56-26.85c-3.6-10.62-5.4-22.8-5.4-36.52,0-19.58,3.43-35.76,10.29-48.56,6.86-12.8,16.27-22.42,28.23-28.86,11.96-6.44,25.47-9.66,40.53-9.66,11.71,0,22.34,1.88,31.87,5.65,9.54,3.76,17.69,9.29,24.47,16.56s12,16.31,15.69,27.1c3.68,10.79,5.52,23.13,5.52,37.02s-1.84,26.69-5.52,37.4c-3.68,10.71-9,19.7-15.94,26.98-6.94,7.28-15.27,12.76-24.97,16.44-9.71,3.68-20.5,5.52-32.38,5.52ZM81.02,455.27c8.87,0,16.31-2.17,22.34-6.53,6.02-4.35,10.62-10.62,13.8-18.82,3.18-8.2,4.77-18.24,4.77-30.12s-1.63-22.92-4.89-31.62c-3.26-8.7-7.99-15.35-14.18-19.95-6.19-4.6-13.72-6.9-22.59-6.9s-16.11,2.22-22.21,6.65c-6.11,4.44-10.79,10.83-14.05,19.2-3.26,8.37-4.89,18.74-4.89,31.12,0,9.04.96,17.11,2.89,24.22,1.92,7.11,4.64,13.09,8.16,17.94,3.51,4.85,7.86,8.53,13.05,11.04,5.18,2.51,11.13,3.76,17.82,3.76Z"/>
    <path class="cls-1" d="M189.43,480.62v-165.64h47.18l75.04,117.21h2.76l-2.26-117.21h35.14v165.64h-42.67l-79.31-122.73h-2.76l2.26,122.73h-35.39Z"/>
  </g>
  <g>
    <path class="cls-2" d="M189.09,376.28v-60.83h13.27v60.83h-13.27ZM191.85,376.28v-11.15h36.22v11.15h-36.22Z"/>
    <path class="cls-2" d="M256.83,377.57c-4.85,0-9.12-.97-12.81-2.9-3.69-1.94-6.58-4.79-8.66-8.57-2.09-3.78-3.13-8.49-3.13-14.15s1.06-10.35,3.18-14.1c2.12-3.75,5.04-6.56,8.76-8.43,3.72-1.87,7.94-2.81,12.67-2.81s9.14.95,12.86,2.86c3.72,1.91,6.64,4.75,8.76,8.53,2.12,3.78,3.18,8.5,3.18,14.15s-1.09,10.46-3.27,14.24c-2.18,3.78-5.13,6.59-8.85,8.43-3.72,1.84-7.94,2.77-12.67,2.77ZM257.29,367.71c2.4,0,4.41-.55,6.04-1.66,1.63-1.11,2.86-2.78,3.69-5.02.83-2.24,1.24-4.96,1.24-8.16,0-3.38-.45-6.25-1.34-8.62-.89-2.36-2.2-4.18-3.92-5.44-1.72-1.26-3.9-1.89-6.54-1.89-2.27,0-4.24.54-5.9,1.61-1.66,1.08-2.92,2.73-3.78,4.98-.86,2.24-1.29,4.99-1.29,8.25,0,5.22,1.04,9.19,3.13,11.89,2.09,2.7,4.98,4.06,8.66,4.06Z"/>
    <path class="cls-2" d="M291.03,376.28v-48.39h10.88l-.09,14.47h1.84c.8-3.5,1.94-6.42,3.41-8.76,1.47-2.33,3.33-4.09,5.58-5.25,2.24-1.17,4.9-1.75,7.97-1.75,5.59,0,9.85,1.97,12.77,5.9,2.92,3.93,4.38,10.11,4.38,18.53v25.25h-13.36v-23.78c0-5.16-.75-8.92-2.26-11.29-1.51-2.36-3.7-3.55-6.59-3.55-2.46,0-4.52.77-6.18,2.3-1.66,1.54-2.9,3.55-3.73,6.04s-1.28,5.27-1.34,8.34v21.94h-13.27Z"/>
    <path class="cls-2" d="M366.88,377.57c-4.06,0-7.6-1.05-10.65-3.13-3.04-2.09-5.39-5.04-7.05-8.85-1.66-3.81-2.49-8.33-2.49-13.55,0-4.92.74-9.28,2.21-13.09,1.47-3.81,3.65-6.79,6.54-8.94,2.89-2.15,6.48-3.23,10.78-3.23,3.13,0,5.77.58,7.93,1.75,2.15,1.17,3.92,2.87,5.3,5.12,1.38,2.24,2.47,4.93,3.27,8.06h2.12c-.43-1.97-.82-3.89-1.15-5.76-.34-1.87-.6-3.67-.78-5.39-.18-1.72-.28-3.23-.28-4.52v-15.67h13.27v65.9h-11.06v-14.01h-1.84c-.68,3.44-1.72,6.3-3.13,8.57-1.41,2.27-3.21,3.96-5.39,5.07-2.18,1.11-4.72,1.66-7.6,1.66ZM371.31,366.7c2.03,0,3.75-.43,5.16-1.29,1.41-.86,2.58-1.98,3.5-3.36.92-1.38,1.6-2.89,2.03-4.52.43-1.63.65-3.15.65-4.56v-1.75c0-1.17-.17-2.38-.51-3.64-.34-1.26-.81-2.5-1.43-3.73-.61-1.23-1.38-2.32-2.3-3.27-.92-.95-2-1.71-3.23-2.26-1.23-.55-2.58-.83-4.06-.83-2.21,0-4.09.62-5.62,1.84-1.54,1.23-2.73,2.94-3.59,5.12-.86,2.18-1.29,4.72-1.29,7.6s.44,5.53,1.34,7.74c.89,2.21,2.13,3.92,3.73,5.12,1.6,1.2,3.47,1.8,5.62,1.8Z"/>
    <path class="cls-2" d="M430.11,377.57c-4.85,0-9.12-.97-12.81-2.9-3.69-1.94-6.58-4.79-8.66-8.57-2.09-3.78-3.13-8.49-3.13-14.15s1.06-10.35,3.18-14.1c2.12-3.75,5.04-6.56,8.76-8.43,3.72-1.87,7.94-2.81,12.67-2.81s9.14.95,12.86,2.86c3.72,1.91,6.64,4.75,8.76,8.53,2.12,3.78,3.18,8.5,3.18,14.15s-1.09,10.46-3.27,14.24c-2.18,3.78-5.13,6.59-8.85,8.43-3.72,1.84-7.94,2.77-12.67,2.77ZM430.57,367.71c2.4,0,4.41-.55,6.04-1.66,1.63-1.11,2.86-2.78,3.69-5.02.83-2.24,1.24-4.96,1.24-8.16,0-3.38-.45-6.25-1.34-8.62-.89-2.36-2.2-4.18-3.92-5.44-1.72-1.26-3.9-1.89-6.54-1.89-2.27,0-4.24.54-5.9,1.61-1.66,1.08-2.92,2.73-3.78,4.98-.86,2.24-1.29,4.99-1.29,8.25,0,5.22,1.04,9.19,3.13,11.89,2.09,2.7,4.98,4.06,8.66,4.06Z"/>
    <path class="cls-2" d="M464.31,376.28v-48.39h10.88l-.09,14.47h1.84c.8-3.5,1.94-6.42,3.41-8.76,1.47-2.33,3.33-4.09,5.58-5.25,2.24-1.17,4.9-1.75,7.97-1.75,5.59,0,9.85,1.97,12.77,5.9,2.92,3.93,4.38,10.11,4.38,18.53v25.25h-13.36v-23.78c0-5.16-.75-8.92-2.26-11.29-1.51-2.36-3.7-3.55-6.59-3.55-2.46,0-4.52.77-6.18,2.3-1.66,1.54-2.9,3.55-3.73,6.04s-1.28,5.27-1.34,8.34v21.94h-13.27Z"/>
    <path class="cls-2" d="M516.75,388.45c1.11-2.83,1.89-5.47,2.35-7.93.46-2.46.74-4.93.83-7.42.09-2.49.14-5.21.14-8.16h12.17c0,4.18-.25,7.76-.74,10.74-.49,2.98-1.15,5.5-1.98,7.56-.83,2.06-1.67,3.79-2.53,5.21h-10.23Z"/>
    <path class="cls-2" d="M215.45,488.18c-4.42,0-8.39-.69-11.89-2.07-3.5-1.38-6.5-3.41-8.99-6.08-2.49-2.67-4.39-5.96-5.71-9.86-1.32-3.9-1.98-8.37-1.98-13.41,0-7.19,1.26-13.13,3.78-17.83,2.52-4.7,5.98-8.23,10.37-10.6,4.39-2.36,9.36-3.55,14.89-3.55,4.3,0,8.2.69,11.71,2.07,3.5,1.38,6.5,3.41,8.99,6.08,2.49,2.67,4.41,5.99,5.76,9.95,1.35,3.96,2.03,8.5,2.03,13.6s-.68,9.8-2.03,13.73c-1.35,3.93-3.3,7.24-5.85,9.91-2.55,2.67-5.61,4.69-9.17,6.04-3.56,1.35-7.53,2.03-11.89,2.03ZM215.82,477.58c3.26,0,5.99-.8,8.2-2.4,2.21-1.6,3.9-3.9,5.07-6.91,1.17-3.01,1.75-6.7,1.75-11.06s-.6-8.42-1.8-11.61c-1.2-3.19-2.94-5.64-5.21-7.33-2.27-1.69-5.04-2.53-8.3-2.53s-5.91.82-8.16,2.44c-2.24,1.63-3.96,3.98-5.16,7.05-1.2,3.07-1.8,6.88-1.8,11.43,0,3.32.35,6.28,1.06,8.89.71,2.61,1.71,4.81,3,6.59,1.29,1.78,2.89,3.13,4.79,4.06,1.9.92,4.09,1.38,6.54,1.38Z"/>
    <path class="cls-2" d="M255.63,486.89v-60.83h17.33l27.56,43.04h1.01l-.83-43.04h12.9v60.83h-15.67l-29.13-45.07h-1.01l.83,45.07h-13Z"/>
  </g>
</svg>