<?xml version="1.0" encoding="UTF-8"?>
<svg id="Layer_1" data-name="Layer 1" xmlns="http://www.w3.org/2000/svg" viewBox="0 0 1117.08 494.92">
  <defs>
    <style>
      .cls-1 {
        fill: #405a64;
      }

      .cls-2 {
        fill: #c2d4df;
      }
    </style>
  </defs>
  <g>
    <path class="cls-2" d="M59.23,179.45L4.52,13.8h39.4l39.15,135.02h3.26L125.74,13.8h38.9l-54.96,165.64h-50.45Z"/>
    <path class="cls-2" d="M204.04,182.96c-7.36,0-13.89-1.47-19.58-4.39-5.69-2.93-10.12-7.15-13.3-12.67-3.18-5.52-4.77-12.38-4.77-20.58,0-7.19,1.38-13.22,4.14-18.07,2.76-4.85,6.82-8.78,12.17-11.8,5.35-3.01,11.96-5.52,19.83-7.53,7.86-2.01,16.82-3.76,26.85-5.27,5.35-.84,9.75-1.63,13.18-2.38,3.43-.75,5.98-2.01,7.66-3.76,1.67-1.76,2.51-4.31,2.51-7.65,0-4.68-1.67-8.7-5.02-12.05-3.35-3.34-8.62-5.02-15.81-5.02-4.86,0-9.33.84-13.43,2.51-4.1,1.67-7.62,4.18-10.54,7.53-2.93,3.35-5.06,7.62-6.4,12.8l-31.87-9.79c2.01-6.86,4.89-12.8,8.66-17.82s8.32-9.24,13.68-12.67c5.35-3.43,11.46-5.98,18.32-7.65,6.86-1.67,14.31-2.51,22.34-2.51,12.88,0,23.38,2.05,31.5,6.15,8.11,4.1,14.18,10.46,18.2,19.07,4.02,8.62,6.02,19.7,6.02,33.25v22.59c0,5.86.13,11.8.38,17.82s.58,12.09,1,18.2c.42,6.11.88,12.17,1.38,18.2h-31.87c-.67-4.18-1.3-8.99-1.88-14.43-.59-5.44-1.05-10.92-1.38-16.44h-4.52c-2.35,6.36-5.69,12.13-10.04,17.32-4.35,5.19-9.66,9.33-15.94,12.42s-13.43,4.64-21.46,4.64ZM219.35,156.86c3.18,0,6.4-.58,9.66-1.76,3.26-1.17,6.44-2.8,9.54-4.89,3.09-2.09,5.94-4.73,8.53-7.91,2.59-3.18,4.73-6.78,6.4-10.79l-.5-21.08,5.77,1.25c-3.01,2.18-6.53,3.89-10.54,5.15s-8.16,2.22-12.42,2.89c-4.27.67-8.49,1.42-12.67,2.26-4.18.84-7.91,1.93-11.17,3.26-3.26,1.34-5.86,3.14-7.78,5.4-1.92,2.26-2.89,5.4-2.89,9.41,0,5.19,1.67,9.29,5.02,12.3,3.34,3.01,7.69,4.52,13.05,4.52Z"/>
    <path class="cls-2" d="M364.66,182.96c-15.4,0-26.98-5.23-34.76-15.69-7.78-10.45-11.67-26.39-11.67-47.81V47.68h36.14v67.26c0,12.89,1.92,22.46,5.77,28.74,3.85,6.27,9.7,9.41,17.57,9.41,4.68,0,8.78-1.17,12.3-3.51,3.51-2.34,6.53-5.6,9.04-9.79,2.51-4.18,4.39-9.12,5.65-14.81,1.25-5.69,1.96-11.8,2.13-18.32v-58.98h36.14v131.76h-29.11l-.25-41.16h-4.52c-2.51,10.38-5.65,18.87-9.41,25.47-3.76,6.61-8.53,11.46-14.31,14.56s-12.67,4.64-20.71,4.64Z"/>
    <path class="cls-2" d="M528.3,225.37c-14.39,0-26.23-1.13-35.51-3.39-9.29-2.26-16.11-5.56-20.45-9.91-4.35-4.35-6.53-9.79-6.53-16.31,0-7.7,3.05-13.97,9.16-18.82,6.11-4.85,15.1-7.78,26.98-8.78v-5.02c-9.04,0-15.98-.96-20.83-2.89-4.86-1.92-7.28-5.31-7.28-10.16s2.38-8.87,7.15-12.55c4.77-3.68,12.67-6.61,23.72-8.78v-5.02c-10.38-.67-18.49-4.02-24.34-10.04-5.86-6.02-8.78-13.8-8.78-23.34,0-8.36,2.34-15.85,7.03-22.46,4.68-6.61,11.67-11.88,20.96-15.81,9.29-3.93,20.71-5.9,34.26-5.9h66.76v27.61l-41.41-5.77v5.77c10.71,1.51,18.45,4.18,23.22,8.03,4.77,3.85,7.15,9.2,7.15,16.06s-2.26,12.89-6.78,18.07c-4.52,5.19-10.92,9.25-19.2,12.17-8.28,2.93-18.2,4.39-29.74,4.39-2.18,0-4.52-.08-7.03-.25-2.51-.17-6.69-.58-12.55-1.25-3.18,2.34-5.65,4.39-7.4,6.15-1.76,1.76-2.64,3.39-2.64,4.89,0,1.17.63,2.18,1.88,3.01,1.25.84,2.93,1.42,5.02,1.76,2.09.34,4.22.5,6.4.5h37.65c3.35,0,7.69.21,13.05.63,5.35.42,10.71,1.72,16.06,3.89,5.35,2.18,9.87,5.65,13.55,10.42,3.68,4.77,5.52,11.59,5.52,20.45,0,9.7-2.72,17.73-8.16,24.09-5.44,6.36-13.72,11.04-24.85,14.05-11.13,3.01-25.14,4.52-42.04,4.52ZM532.31,196.51c10.2,0,18.15-.55,23.84-1.63,5.69-1.09,9.75-2.85,12.17-5.27,2.42-2.43,3.64-5.48,3.64-9.16,0-3.35-.71-5.94-2.13-7.78-1.42-1.84-3.26-3.14-5.52-3.89s-4.52-1.25-6.78-1.51-4.23-.38-5.9-.38h-31.62c-7.03.67-12.09,2.55-15.18,5.65-3.1,3.1-4.64,6.65-4.64,10.67,0,3.68,1.17,6.44,3.51,8.28,2.34,1.84,5.9,3.14,10.67,3.89s10.75,1.13,17.94,1.13ZM531.81,113.69c8.03,0,14.05-1.96,18.07-5.9,4.02-3.93,6.02-9.07,6.02-15.44,0-6.69-2.05-12.21-6.15-16.56-4.1-4.35-10.08-6.53-17.95-6.53s-13.72,2.13-18.07,6.4c-4.35,4.27-6.53,9.75-6.53,16.44,0,4.18.96,7.91,2.89,11.17,1.92,3.26,4.73,5.82,8.41,7.65,3.68,1.84,8.11,2.76,13.3,2.76Z"/>
    <path class="cls-2" d="M626.93,179.45V0h36.39v41.16c0,3.35-.13,6.86-.38,10.54-.25,3.68-.67,7.4-1.25,11.17-.59,3.76-1.17,7.57-1.76,11.42-.59,3.85-1.21,7.7-1.88,11.54h5.52c2.34-8.53,5.31-15.89,8.91-22.09,3.6-6.19,8.24-11,13.93-14.43,5.69-3.43,12.88-5.14,21.58-5.14,15.39,0,26.94,5.4,34.63,16.19,7.69,10.79,11.54,27.32,11.54,49.57v69.52h-36.39v-64c0-14.05-2.05-24.47-6.15-31.25-4.1-6.78-10.25-10.16-18.45-10.16-6.69,0-12.22,2.01-16.56,6.02-4.35,4.02-7.62,9.41-9.79,16.19-2.18,6.78-3.43,14.35-3.76,22.71v60.48h-36.14Z"/>
    <path class="cls-2" d="M816.16,182.96c-7.36,0-13.89-1.47-19.58-4.39-5.69-2.93-10.13-7.15-13.3-12.67-3.18-5.52-4.77-12.38-4.77-20.58,0-7.19,1.38-13.22,4.14-18.07,2.76-4.85,6.82-8.78,12.17-11.8,5.35-3.01,11.96-5.52,19.83-7.53,7.86-2.01,16.82-3.76,26.85-5.27,5.35-.84,9.75-1.63,13.18-2.38,3.43-.75,5.98-2.01,7.65-3.76,1.67-1.76,2.51-4.31,2.51-7.65,0-4.68-1.67-8.7-5.02-12.05-3.35-3.34-8.62-5.02-15.81-5.02-4.85,0-9.33.84-13.43,2.51-4.1,1.67-7.62,4.18-10.54,7.53-2.93,3.35-5.06,7.62-6.4,12.8l-31.87-9.79c2.01-6.86,4.89-12.8,8.66-17.82s8.32-9.24,13.68-12.67c5.35-3.43,11.46-5.98,18.32-7.65,6.86-1.67,14.31-2.51,22.34-2.51,12.88,0,23.38,2.05,31.5,6.15,8.11,4.1,14.18,10.46,18.2,19.07,4.02,8.62,6.02,19.7,6.02,33.25v22.59c0,5.86.13,11.8.38,17.82s.58,12.09,1,18.2c.42,6.11.88,12.17,1.38,18.2h-31.87c-.67-4.18-1.3-8.99-1.88-14.43-.59-5.44-1.05-10.92-1.38-16.44h-4.52c-2.34,6.36-5.69,12.13-10.04,17.32-4.35,5.19-9.66,9.33-15.94,12.42s-13.43,4.64-21.46,4.64ZM831.47,156.86c3.18,0,6.4-.58,9.66-1.76,3.26-1.17,6.44-2.8,9.54-4.89,3.09-2.09,5.94-4.73,8.53-7.91,2.59-3.18,4.73-6.78,6.4-10.79l-.5-21.08,5.77,1.25c-3.01,2.18-6.53,3.89-10.54,5.15s-8.16,2.22-12.42,2.89c-4.27.67-8.49,1.42-12.67,2.26-4.18.84-7.91,1.93-11.17,3.26-3.26,1.34-5.86,3.14-7.78,5.4-1.93,2.26-2.89,5.4-2.89,9.41,0,5.19,1.67,9.29,5.02,12.3,3.35,3.01,7.69,4.52,13.05,4.52Z"/>
    <path class="cls-2" d="M932.11,179.45V47.68h29.62l-.25,39.4h5.02c2.17-9.54,5.27-17.48,9.29-23.84,4.02-6.36,9.07-11.12,15.18-14.31,6.11-3.18,13.34-4.77,21.71-4.77,15.22,0,26.81,5.36,34.76,16.06,7.94,10.71,11.92,27.52,11.92,50.45v68.77h-36.39v-64.75c0-14.05-2.05-24.3-6.15-30.74-4.1-6.44-10.08-9.66-17.94-9.66-6.69,0-12.3,2.09-16.82,6.27-4.52,4.18-7.91,9.66-10.17,16.44s-3.47,14.35-3.64,22.71v59.73h-36.14Z"/>
    <path class="cls-2" d="M1074.92,212.58c3.01-7.7,5.14-14.89,6.4-21.58,1.25-6.69,2.01-13.43,2.26-20.2s.38-14.18.38-22.21h33.13c0,11.38-.67,21.12-2.01,29.24-1.34,8.11-3.14,14.97-5.4,20.58-2.26,5.6-4.56,10.33-6.9,14.18h-27.86Z"/>
    <path class="cls-2" d="M90.1,484.13c-12.05,0-22.84-1.88-32.38-5.65s-17.69-9.29-24.47-16.56-11.96-16.23-15.56-26.85c-3.6-10.62-5.4-22.8-5.4-36.52,0-19.58,3.43-35.76,10.29-48.56,6.86-12.8,16.27-22.42,28.23-28.86,11.96-6.44,25.47-9.66,40.53-9.66,11.71,0,22.34,1.88,31.87,5.65,9.54,3.76,17.69,9.29,24.47,16.56s12,16.31,15.69,27.1c3.68,10.79,5.52,23.13,5.52,37.02s-1.84,26.69-5.52,37.4c-3.68,10.71-9,19.7-15.94,26.98-6.95,7.28-15.27,12.76-24.97,16.44-9.71,3.68-20.5,5.52-32.38,5.52ZM91.1,455.27c8.87,0,16.31-2.17,22.34-6.53,6.02-4.35,10.62-10.62,13.8-18.82,3.18-8.2,4.77-18.24,4.77-30.12s-1.63-22.92-4.89-31.62c-3.26-8.7-7.99-15.35-14.18-19.95-6.19-4.6-13.72-6.9-22.59-6.9s-16.11,2.22-22.21,6.65c-6.11,4.44-10.79,10.83-14.05,19.2-3.26,8.37-4.89,18.74-4.89,31.12,0,9.04.96,17.11,2.89,24.22,1.92,7.11,4.64,13.09,8.16,17.94,3.51,4.85,7.86,8.53,13.05,11.04,5.18,2.51,11.12,3.76,17.82,3.76Z"/>
    <path class="cls-2" d="M199.52,480.62v-165.64h47.18l75.04,117.21h2.76l-2.26-117.21h35.14v165.64h-42.67l-79.31-122.73h-2.76l2.26,122.73h-35.39Z"/>
  </g>
  <g>
    <path class="cls-1" d="M214.41,373.18l-21.11-63.92h15.21l15.11,52.1h1.26l15.21-52.1h15.01l-21.21,63.92h-19.47Z"/>
    <path class="cls-1" d="M270.29,374.53c-2.84,0-5.36-.57-7.55-1.69-2.2-1.13-3.91-2.76-5.13-4.89-1.23-2.13-1.84-4.78-1.84-7.94,0-2.77.53-5.1,1.6-6.97,1.07-1.87,2.63-3.39,4.7-4.55,2.07-1.16,4.62-2.13,7.65-2.91,3.03-.77,6.49-1.45,10.36-2.03,2.07-.32,3.76-.63,5.08-.92,1.32-.29,2.31-.77,2.95-1.45.64-.68.97-1.66.97-2.95,0-1.81-.65-3.36-1.94-4.65-1.29-1.29-3.33-1.94-6.1-1.94-1.87,0-3.6.32-5.18.97-1.58.65-2.94,1.61-4.07,2.91-1.13,1.29-1.95,2.94-2.47,4.94l-12.3-3.78c.77-2.65,1.89-4.94,3.34-6.88,1.45-1.94,3.21-3.57,5.28-4.89,2.07-1.32,4.42-2.31,7.07-2.95,2.65-.65,5.52-.97,8.62-.97,4.97,0,9.02.79,12.15,2.37,3.13,1.58,5.47,4.04,7.02,7.36,1.55,3.33,2.32,7.6,2.32,12.83v8.72c0,2.26.05,4.55.15,6.88.1,2.32.23,4.67.39,7.02.16,2.36.34,4.7.53,7.02h-12.3c-.26-1.61-.5-3.47-.73-5.57-.23-2.1-.4-4.21-.53-6.34h-1.74c-.91,2.45-2.2,4.68-3.87,6.68-1.68,2-3.73,3.6-6.15,4.79-2.42,1.19-5.18,1.79-8.28,1.79ZM276.19,364.46c1.23,0,2.47-.23,3.73-.68,1.26-.45,2.48-1.08,3.68-1.89,1.19-.81,2.29-1.82,3.29-3.05,1-1.23,1.82-2.61,2.47-4.16l-.19-8.14,2.23.48c-1.16.84-2.52,1.5-4.07,1.99-1.55.48-3.15.86-4.79,1.11-1.65.26-3.28.55-4.89.87-1.61.32-3.05.74-4.31,1.26-1.26.52-2.26,1.21-3,2.08-.74.87-1.11,2.08-1.11,3.63,0,2,.64,3.58,1.94,4.75,1.29,1.16,2.97,1.74,5.04,1.74Z"/>
    <path class="cls-1" d="M332.27,374.53c-5.94,0-10.41-2.02-13.41-6.05-3-4.03-4.5-10.18-4.5-18.45v-27.7h13.95v25.96c0,4.97.74,8.67,2.23,11.09,1.48,2.42,3.74,3.63,6.78,3.63,1.81,0,3.39-.45,4.75-1.36,1.36-.9,2.52-2.16,3.49-3.78.97-1.61,1.7-3.52,2.18-5.71.48-2.19.76-4.55.82-7.07v-22.76h13.95v50.84h-11.23l-.1-15.88h-1.74c-.97,4-2.18,7.28-3.63,9.83-1.45,2.55-3.29,4.42-5.52,5.62-2.23,1.19-4.89,1.79-7.99,1.79Z"/>
    <path class="cls-1" d="M395.41,390.9c-5.55,0-10.12-.44-13.7-1.31-3.58-.87-6.21-2.15-7.89-3.83s-2.52-3.78-2.52-6.3c0-2.97,1.18-5.39,3.54-7.26,2.36-1.87,5.83-3,10.41-3.39v-1.94c-3.49,0-6.17-.37-8.04-1.11-1.87-.74-2.81-2.05-2.81-3.92s.92-3.42,2.76-4.84c1.84-1.42,4.89-2.55,9.15-3.39v-1.94c-4-.26-7.13-1.55-9.39-3.87-2.26-2.32-3.39-5.33-3.39-9.01,0-3.23.9-6.12,2.71-8.67,1.81-2.55,4.5-4.58,8.09-6.1,3.58-1.52,7.99-2.28,13.22-2.28h25.76v10.65l-15.98-2.23v2.23c4.13.58,7.12,1.61,8.96,3.1,1.84,1.49,2.76,3.55,2.76,6.2s-.87,4.97-2.62,6.97c-1.74,2-4.21,3.57-7.41,4.7-3.2,1.13-7.02,1.69-11.48,1.69-.84,0-1.74-.03-2.71-.1-.97-.06-2.58-.23-4.84-.48-1.23.9-2.18,1.69-2.86,2.37-.68.68-1.02,1.31-1.02,1.89,0,.45.24.84.73,1.16.48.32,1.13.55,1.94.68.81.13,1.63.19,2.47.19h14.53c1.29,0,2.97.08,5.04.24,2.07.16,4.13.66,6.2,1.5,2.07.84,3.81,2.18,5.23,4.02,1.42,1.84,2.13,4.47,2.13,7.89,0,3.74-1.05,6.84-3.15,9.3-2.1,2.45-5.29,4.26-9.59,5.42-4.29,1.16-9.7,1.74-16.22,1.74ZM396.96,379.76c3.94,0,7-.21,9.2-.63,2.19-.42,3.76-1.1,4.7-2.03.93-.94,1.4-2.12,1.4-3.54,0-1.29-.28-2.29-.82-3-.55-.71-1.26-1.21-2.13-1.5-.87-.29-1.74-.48-2.62-.58-.87-.1-1.63-.15-2.28-.15h-12.2c-2.71.26-4.67.98-5.86,2.18s-1.79,2.57-1.79,4.12c0,1.42.45,2.48,1.36,3.2.9.71,2.28,1.21,4.12,1.5s4.15.44,6.92.44ZM396.77,347.8c3.1,0,5.42-.76,6.97-2.28,1.55-1.52,2.32-3.5,2.32-5.96,0-2.58-.79-4.71-2.37-6.39-1.58-1.68-3.89-2.52-6.92-2.52s-5.29.82-6.97,2.47c-1.68,1.65-2.52,3.76-2.52,6.34,0,1.61.37,3.05,1.11,4.31.74,1.26,1.82,2.24,3.24,2.95,1.42.71,3.13,1.07,5.13,1.07Z"/>
    <path class="cls-1" d="M433.47,373.18v-69.25h14.04v15.88c0,1.29-.05,2.65-.15,4.07-.1,1.42-.26,2.86-.48,4.31-.23,1.45-.45,2.92-.68,4.41-.23,1.49-.47,2.97-.73,4.46h2.13c.9-3.29,2.05-6.13,3.44-8.52,1.39-2.39,3.18-4.24,5.38-5.57,2.19-1.32,4.97-1.99,8.33-1.99,5.94,0,10.39,2.08,13.36,6.25,2.97,4.16,4.46,10.54,4.46,19.13v26.83h-14.04v-24.7c0-5.42-.79-9.44-2.37-12.06-1.58-2.61-3.96-3.92-7.12-3.92-2.58,0-4.71.77-6.39,2.32-1.68,1.55-2.94,3.63-3.78,6.25-.84,2.62-1.32,5.54-1.45,8.76v23.34h-13.95Z"/>
    <path class="cls-1" d="M506.49,374.53c-2.84,0-5.36-.57-7.55-1.69-2.2-1.13-3.91-2.76-5.13-4.89-1.23-2.13-1.84-4.78-1.84-7.94,0-2.77.53-5.1,1.6-6.97,1.07-1.87,2.63-3.39,4.7-4.55,2.07-1.16,4.62-2.13,7.65-2.91,3.03-.77,6.49-1.45,10.36-2.03,2.07-.32,3.76-.63,5.08-.92,1.32-.29,2.31-.77,2.95-1.45.64-.68.97-1.66.97-2.95,0-1.81-.65-3.36-1.94-4.65-1.29-1.29-3.33-1.94-6.1-1.94-1.87,0-3.6.32-5.18.97-1.58.65-2.94,1.61-4.07,2.91-1.13,1.29-1.95,2.94-2.47,4.94l-12.3-3.78c.77-2.65,1.89-4.94,3.34-6.88,1.45-1.94,3.21-3.57,5.28-4.89,2.07-1.32,4.42-2.31,7.07-2.95,2.65-.65,5.52-.97,8.62-.97,4.97,0,9.02.79,12.15,2.37,3.13,1.58,5.47,4.04,7.02,7.36,1.55,3.33,2.32,7.6,2.32,12.83v8.72c0,2.26.05,4.55.15,6.88.1,2.32.23,4.67.39,7.02.16,2.36.34,4.7.53,7.02h-12.3c-.26-1.61-.5-3.47-.73-5.57-.23-2.1-.4-4.21-.53-6.34h-1.74c-.91,2.45-2.2,4.68-3.87,6.68-1.68,2-3.73,3.6-6.15,4.79-2.42,1.19-5.18,1.79-8.28,1.79ZM512.4,364.46c1.23,0,2.47-.23,3.73-.68,1.26-.45,2.48-1.08,3.68-1.89,1.19-.81,2.29-1.82,3.29-3.05,1-1.23,1.82-2.61,2.47-4.16l-.19-8.14,2.23.48c-1.16.84-2.52,1.5-4.07,1.99-1.55.48-3.15.86-4.79,1.11-1.65.26-3.28.55-4.89.87-1.61.32-3.05.74-4.31,1.26-1.26.52-2.26,1.21-3,2.08-.74.87-1.11,2.08-1.11,3.63,0,2,.64,3.58,1.94,4.75,1.29,1.16,2.97,1.74,5.04,1.74Z"/>
    <path class="cls-1" d="M551.24,373.18v-50.84h11.43l-.1,15.21h1.94c.84-3.68,2.03-6.75,3.58-9.2,1.55-2.45,3.5-4.29,5.86-5.52,2.36-1.23,5.15-1.84,8.38-1.84,5.88,0,10.35,2.07,13.41,6.2,3.07,4.13,4.6,10.62,4.6,19.47v26.54h-14.04v-24.99c0-5.42-.79-9.38-2.37-11.86-1.58-2.48-3.89-3.73-6.92-3.73-2.58,0-4.75.81-6.49,2.42-1.74,1.61-3.05,3.73-3.92,6.34-.87,2.62-1.34,5.54-1.4,8.76v23.05h-13.95Z"/>
    <path class="cls-1" d="M606.34,385.96c1.16-2.97,1.99-5.75,2.47-8.33.48-2.58.77-5.18.87-7.8s.15-5.47.15-8.57h12.78c0,4.39-.26,8.15-.77,11.28-.52,3.13-1.21,5.78-2.08,7.94-.87,2.16-1.76,3.99-2.66,5.47h-10.75Z"/>
    <path class="cls-1" d="M226.32,490.75c-4.65,0-8.81-.73-12.49-2.18-3.68-1.45-6.83-3.58-9.44-6.39-2.61-2.81-4.62-6.26-6-10.36-1.39-4.1-2.08-8.8-2.08-14.09,0-7.55,1.32-13.8,3.97-18.74,2.65-4.94,6.28-8.65,10.9-11.14,4.62-2.48,9.83-3.73,15.64-3.73,4.52,0,8.62.73,12.3,2.18,3.68,1.45,6.83,3.58,9.44,6.39,2.62,2.81,4.63,6.3,6.05,10.46,1.42,4.16,2.13,8.93,2.13,14.29s-.71,10.3-2.13,14.43c-1.42,4.13-3.47,7.6-6.15,10.41-2.68,2.81-5.89,4.92-9.64,6.34-3.75,1.42-7.91,2.13-12.49,2.13ZM226.71,479.61c3.42,0,6.29-.84,8.62-2.52,2.33-1.68,4.1-4.1,5.33-7.26,1.23-3.16,1.84-7.04,1.84-11.62s-.63-8.85-1.89-12.2c-1.26-3.36-3.08-5.92-5.47-7.7-2.39-1.77-5.29-2.66-8.72-2.66s-6.21.86-8.57,2.57c-2.36,1.71-4.16,4.18-5.42,7.41-1.26,3.23-1.89,7.23-1.89,12.01,0,3.49.37,6.6,1.11,9.35.74,2.74,1.79,5.05,3.15,6.92,1.36,1.87,3.03,3.29,5.04,4.26,2,.97,4.29,1.45,6.88,1.45Z"/>
    <path class="cls-1" d="M268.54,489.4v-63.92h18.21l28.96,45.23h1.07l-.87-45.23h13.56v63.92h-16.46l-30.6-47.36h-1.07l.87,47.36h-13.66Z"/>
  </g>
</svg>